{"glyphs":{"0":{"ha":446,"x_min":61,"x_max":378,"o":"m 229 4 q 61 785 61 4 l 61 829 q 85 992 61 933 q 120 1042 96 1025 q 179 1060 144 1060 q 378 353 378 1060 q 229 4 378 4 m 242 68 q 278 110 264 68 q 311 314 301 171 q 314 385 314 344 q 306 632 314 478 q 263 896 296 778 q 222 990 247 956 q 164 1029 196 1025 q 135 994 143 1013 q 128 946 128 976 q 131 810 128 869 l 133 671 q 140 604 133 653 q 147 536 147 553 q 151 383 147 503 q 178 174 157 269 q 204 97 188 125 q 242 68 221 68 z "},"1":{"ha":374,"x_min":10,"x_max":346,"o":"m 146 -6 q 113 1 122 -6 q 103 32 103 8 q 110 53 103 47 q 139 58 117 58 q 169 82 169 58 q 149 488 169 219 q 128 888 128 757 q 129 911 128 900 l 129 938 q 82 1003 129 1003 l 67 1003 l 50 1001 q 10 1032 10 1001 q 122 1068 10 1068 q 193 1044 182 1068 q 185 986 185 1007 q 196 860 185 949 q 206 732 206 781 q 221 404 206 633 q 236 74 236 201 l 236 65 q 251 67 242 65 q 271 68 261 68 q 288 69 276 69 q 346 35 346 69 q 188 -6 346 -6 l 165 -6 l 146 -6 z "},"2":{"ha":476,"x_min":68,"x_max":368,"o":"m 118 -10 q 83 2 97 -10 q 68 32 68 14 l 68 38 q 124 149 96 71 q 144 203 136 186 q 264 531 226 385 q 301 839 301 676 q 235 1017 301 1013 q 204 951 213 1006 q 190 915 201 929 q 163 900 179 900 q 129 943 129 900 q 168 1053 129 1008 q 218 1075 189 1075 l 218 1076 q 297 1056 265 1076 q 342 1003 321 1042 q 363 929 353 981 q 366 883 365 904 q 368 851 367 861 l 368 814 q 345 609 368 719 q 290 413 322 499 q 218 225 254 314 q 156 58 175 117 q 319 72 235 72 q 349 33 349 51 q 331 3 349 17 q 256 -1 304 3 l 225 -3 q 118 -10 167 -10 z "},"3":{"ha":464,"x_min":40,"x_max":369,"o":"m 225 -14 q 142 14 174 -14 q 122 51 122 29 q 126 70 122 65 q 146 75 131 75 q 165 67 157 75 q 187 49 176 56 q 214 43 197 43 q 299 200 299 43 q 297 307 299 272 q 289 393 296 342 q 214 576 272 504 q 200 575 211 575 q 169 582 182 575 q 157 603 157 589 q 203 672 157 626 q 233 722 221 692 q 246 781 246 751 q 233 907 246 838 q 210 975 226 949 q 174 1001 194 1001 q 147 990 158 1001 q 129 963 135 979 q 113 934 125 946 q 82 922 100 922 q 55 933 67 922 q 40 960 43 943 q 95 1038 60 1008 q 176 1067 131 1067 q 235 1047 208 1067 q 276 993 261 1026 q 300 919 290 961 q 313 839 310 876 q 315 763 315 813 q 309 724 315 743 q 296 693 303 704 q 274 660 289 678 l 253 629 q 310 563 285 610 q 347 453 335 515 q 369 244 369 336 q 363 133 369 188 q 322 32 353 75 q 225 -14 293 -14 z "},"4":{"ha":421,"x_min":101,"x_max":374,"o":"m 281 -26 q 249 -6 261 -26 q 236 40 236 15 l 236 44 q 243 94 243 72 q 239 163 243 119 q 233 231 233 203 l 233 261 q 235 290 235 274 q 232 333 235 306 l 196 329 q 156 325 168 325 q 101 347 129 325 q 108 401 101 376 q 101 479 101 436 q 113 622 101 519 q 122 763 122 711 l 122 1019 q 132 1042 122 1038 q 149 1046 139 1046 q 178 1037 167 1046 q 190 1013 190 1028 q 188 958 190 982 l 185 904 l 185 892 q 183 879 183 886 q 186 854 183 868 l 186 849 q 190 775 190 814 q 181 599 190 707 q 171 422 171 490 q 174 390 171 413 q 224 399 206 393 q 231 594 224 449 q 236 786 236 711 q 248 809 236 800 q 272 818 260 818 l 294 793 l 294 726 q 292 404 294 546 q 297 405 293 404 q 308 406 300 406 q 332 407 318 407 q 374 378 374 407 q 318 344 374 344 q 294 332 294 344 q 299 197 294 274 q 310 106 303 119 q 307 79 307 94 q 313 51 307 61 l 313 26 q 305 -11 313 4 q 281 -26 297 -26 z "},"5":{"ha":458,"x_min":82,"x_max":383,"o":"m 242 -25 q 167 14 167 -25 q 179 38 167 29 q 208 46 192 46 q 244 33 231 46 q 296 106 275 44 q 317 222 317 168 q 315 340 317 292 q 301 453 311 403 q 289 501 296 482 q 268 544 282 521 q 204 597 249 579 q 158 604 181 604 q 115 631 126 604 q 108 683 108 651 q 113 719 108 694 l 115 754 q 108 872 115 818 l 90 988 l 82 1044 l 106 1069 l 218 1069 q 276 1033 276 1069 l 276 1026 l 250 1006 l 215 1006 l 215 1010 l 157 1010 q 183 679 158 940 l 211 676 q 269 667 242 674 q 296 654 285 663 q 347 562 325 633 q 376 414 369 490 q 383 294 383 340 q 381 189 383 231 q 375 142 379 160 q 361 96 371 125 q 341 54 353 72 q 310 15 329 36 q 265 -25 290 -4 l 256 -25 l 242 -25 z "},"6":{"ha":393,"x_min":68,"x_max":325,"o":"m 214 -10 q 117 75 149 -10 q 76 265 83 158 q 68 479 68 363 l 68 544 l 68 597 q 218 1075 68 1075 q 240 1067 229 1075 q 250 1047 250 1058 q 235 1017 250 1031 q 197 1000 219 1004 q 166 910 181 985 q 144 757 151 836 l 138 643 q 158 646 151 646 q 217 625 190 646 q 261 569 243 604 q 311 397 292 513 q 325 222 322 308 l 325 160 q 324 110 325 133 q 317 65 322 88 q 299 25 310 40 q 265 0 288 10 q 214 -10 242 -10 m 225 50 q 261 144 261 50 q 244 390 261 226 q 215 533 233 482 q 167 599 194 592 q 142 568 149 585 q 136 522 136 551 q 138 461 136 485 l 139 410 q 149 253 140 332 q 175 111 156 179 q 225 50 193 50 z "},"7":{"ha":417,"x_min":51,"x_max":322,"o":"m 101 17 q 117 90 101 42 l 126 124 q 215 563 182 329 q 251 1013 247 797 q 219 1015 238 1015 q 131 1007 206 1015 l 83 1003 q 60 1020 69 1010 q 51 1043 51 1031 q 226 1072 51 1072 l 251 1072 q 284 1070 274 1072 q 306 1060 294 1068 q 322 1033 314 1054 q 263 550 300 925 q 228 284 250 415 q 182 81 207 153 l 182 68 q 166 17 182 40 q 128 -7 150 -7 l 101 17 z "},"8":{"ha":436,"x_min":82,"x_max":356,"o":"m 222 -56 q 169 -36 192 -56 q 133 15 146 -17 q 113 135 113 71 q 144 368 113 218 q 176 585 176 515 q 163 672 176 622 q 129 769 149 722 q 96 870 110 818 q 82 964 82 922 q 107 1054 82 1018 q 178 1090 132 1090 l 207 1090 q 267 1038 251 1061 q 283 1009 278 1021 q 290 976 289 997 q 293 890 293 949 q 290 821 293 846 l 286 789 q 275 721 285 769 q 269 692 269 696 q 261 653 268 685 l 253 617 l 244 585 q 324 333 293 474 q 354 81 354 193 q 356 71 354 75 l 356 61 l 354 47 l 353 42 l 353 40 q 222 -56 311 -56 m 201 683 q 232 890 232 788 q 222 977 232 926 q 197 1028 211 1028 l 168 1028 q 149 958 149 1006 q 166 827 149 915 q 201 683 183 739 m 224 4 q 274 28 258 4 q 290 94 290 53 q 272 278 290 185 q 215 508 254 372 q 186 340 196 444 q 176 129 176 235 l 176 128 q 194 56 176 92 l 194 49 q 204 18 196 32 q 224 4 213 4 z "},"9":{"ha":390,"x_min":31,"x_max":282,"o":"m 189 3 q 210 465 210 68 q 208 556 210 518 l 207 632 q 80 708 129 650 q 31 843 31 765 q 44 968 31 910 q 69 1033 54 1007 q 107 1076 83 1058 q 165 1094 131 1094 q 257 1065 232 1094 q 282 963 282 1035 q 274 563 282 829 q 265 161 265 294 q 261 113 265 146 q 256 61 256 81 q 257 49 256 54 l 257 33 q 244 -8 257 8 q 210 -24 232 -24 l 189 3 m 208 685 q 215 968 215 800 q 205 1019 215 1003 q 165 1036 194 1036 q 133 1013 147 1036 q 111 956 118 990 q 99 846 99 888 q 103 790 99 814 q 110 769 106 776 l 117 753 q 128 739 119 746 l 140 726 q 157 715 147 721 q 171 706 167 708 q 176 702 172 704 q 189 696 181 700 l 208 685 z "}," ":{"ha":254,"x_min":0,"x_max":0,"o":""},"A":{"ha":486,"x_min":24,"x_max":404,"o":"m 358 0 q 326 8 336 0 q 315 36 315 17 l 315 218 q 247 240 297 231 q 153 253 197 250 q 131 182 138 224 l 125 154 q 117 111 124 144 q 101 53 110 78 q 85 15 93 29 q 24 43 32 15 q 58 174 39 65 l 104 428 q 160 736 135 608 q 215 950 186 864 q 276 1046 247 1046 q 321 1035 306 1046 q 347 767 321 979 q 375 482 375 558 q 390 271 375 408 q 404 47 404 131 q 358 0 404 0 m 286 299 q 314 303 297 299 q 300 454 310 364 q 268 839 268 768 l 268 850 q 230 724 254 836 q 185 485 206 613 q 163 315 164 357 q 286 299 221 299 z "},"B":{"ha":436,"x_min":82,"x_max":389,"o":"m 149 -11 q 85 24 85 -11 l 88 194 l 90 365 q 86 647 90 458 q 82 929 82 835 l 82 938 q 89 1004 82 974 q 133 1042 97 1042 q 288 979 231 1042 q 344 814 344 917 q 311 683 344 751 q 232 582 278 615 q 351 442 313 528 q 389 254 389 357 q 356 133 389 206 q 246 10 315 47 q 154 -11 204 -11 l 149 -11 m 163 603 q 224 663 199 611 q 263 757 244 701 q 276 796 267 772 l 276 844 q 246 925 276 886 q 176 964 215 964 q 157 921 157 964 q 160 757 157 829 l 163 603 m 168 61 q 276 124 236 71 q 317 250 317 176 q 306 367 317 314 q 279 449 296 421 q 249 493 264 475 q 222 517 233 511 l 211 521 l 161 521 q 168 61 168 361 z "},"C":{"ha":468,"x_min":61,"x_max":444,"o":"m 275 -22 q 203 -4 236 -22 q 147 44 171 14 q 110 119 126 74 q 85 213 93 164 q 63 428 68 294 q 61 538 61 460 l 61 625 q 63 703 63 663 q 72 832 63 785 q 68 875 68 853 q 131 1010 68 958 q 289 1061 193 1061 q 356 1042 325 1061 q 386 993 386 1022 q 375 971 386 979 q 347 963 364 963 q 317 967 333 963 q 297 979 301 971 l 279 979 l 279 982 q 193 960 228 982 q 154 900 168 942 q 146 861 149 885 q 143 818 143 838 q 142 774 142 807 l 144 725 l 146 678 q 140 629 146 657 q 133 581 133 594 l 133 547 q 138 399 133 493 q 156 240 139 319 q 203 115 168 167 q 293 63 236 63 q 351 88 317 63 q 404 113 389 113 q 444 92 424 113 q 406 13 444 40 q 319 -19 369 -12 q 275 -22 292 -22 z "},"D":{"ha":526,"x_min":64,"x_max":442,"o":"m 154 -3 q 106 10 126 -3 q 86 44 86 22 q 117 207 117 75 q 104 438 117 286 q 90 665 90 582 l 93 742 q 94 818 94 775 q 81 917 94 857 q 64 1004 64 979 q 171 1053 64 1053 l 192 1053 q 322 1007 267 1053 q 397 894 367 968 q 433 756 418 844 q 442 633 442 678 l 442 589 l 442 524 q 439 513 439 518 q 440 496 439 501 q 442 482 442 490 q 428 376 442 438 q 390 250 415 314 q 250 33 328 97 q 154 -3 204 -3 m 183 78 q 274 170 235 110 q 333 304 313 231 q 371 579 371 440 q 357 743 371 654 q 292 899 342 829 q 232 951 268 932 q 150 969 196 969 l 150 968 q 167 590 150 843 q 183 210 183 339 l 183 78 z "},"E":{"ha":386,"x_min":75,"x_max":325,"o":"m 163 -8 q 117 -1 136 -8 q 93 38 93 6 l 93 844 q 85 915 93 868 q 75 986 75 958 l 75 990 q 110 1040 99 1029 q 161 1046 129 1040 q 213 1051 190 1051 q 256 1038 235 1051 q 276 1007 276 1025 q 213 965 276 965 l 193 965 q 174 967 185 967 q 158 965 161 967 q 164 851 158 918 l 167 813 l 169 736 q 165 656 169 710 l 163 578 l 182 582 q 228 590 210 590 q 256 578 243 590 q 268 551 268 567 q 258 522 268 535 q 232 508 247 508 l 215 510 l 197 510 q 168 500 176 510 l 168 71 l 246 75 q 325 39 325 75 l 325 33 q 294 6 317 17 q 251 -7 272 -4 l 206 -8 l 163 -8 z "},"F":{"ha":368,"x_min":75,"x_max":293,"o":"m 157 -1 q 117 88 117 -1 q 102 603 117 249 q 75 976 88 957 q 106 1036 75 1015 q 137 1048 117 1043 q 174 1053 157 1053 q 208 1054 182 1054 q 254 1044 240 1054 q 268 1007 268 1033 q 257 984 268 992 q 229 976 246 976 l 215 978 l 196 978 q 157 963 157 978 q 167 774 157 890 q 178 589 175 676 q 215 598 188 592 q 256 604 242 604 q 282 591 271 604 q 293 561 293 578 q 275 533 293 542 q 262 527 272 532 q 235 521 251 522 q 193 517 222 519 l 178 517 q 192 290 178 433 q 204 64 204 140 l 203 58 l 201 56 q 203 38 203 50 q 190 9 203 19 q 157 -1 178 -1 z "},"G":{"ha":515,"x_min":61,"x_max":488,"o":"m 306 -36 q 179 10 229 -36 q 106 124 139 43 q 72 272 85 176 q 63 419 63 350 q 61 482 61 438 l 61 529 l 61 585 q 65 728 61 644 q 88 872 71 799 q 140 994 106 944 q 233 1069 175 1047 q 299 1079 268 1079 q 357 1040 357 1079 q 347 1016 357 1025 q 319 1007 336 1007 q 300 1011 314 1007 l 281 1014 q 233 998 254 1014 q 199 951 213 982 q 156 806 167 885 q 139 636 140 708 q 136 504 136 574 l 136 467 q 135 418 135 447 q 142 279 135 347 q 172 140 147 199 q 244 49 194 75 q 303 35 268 35 q 406 93 364 35 q 399 188 404 142 q 382 251 393 235 q 376 251 381 251 q 361 249 371 250 l 328 246 q 281 286 281 246 q 294 308 281 299 q 332 322 308 318 q 401 332 371 332 q 444 311 429 332 q 460 258 460 290 q 474 133 460 213 q 488 10 488 56 q 478 -17 488 -6 q 454 -28 468 -28 q 407 1 419 -28 l 407 3 l 376 -12 q 306 -36 335 -36 z "},"H":{"ha":458,"x_min":64,"x_max":367,"o":"m 326 -21 q 299 -8 308 -21 q 290 25 290 6 q 279 515 290 315 q 232 521 246 521 q 150 511 175 521 q 163 276 150 433 q 174 40 174 110 q 165 15 174 26 q 144 3 157 3 q 111 67 126 3 q 75 463 89 161 q 65 901 65 667 q 64 1024 64 944 q 88 1049 64 1049 q 116 1042 101 1049 q 138 1026 131 1035 q 132 922 132 982 q 138 781 132 864 q 142 636 142 685 l 142 611 q 140 585 140 600 q 143 549 140 571 q 171 550 151 549 q 210 554 190 551 q 278 558 256 558 q 275 782 278 679 l 272 1014 l 272 1051 q 304 1045 290 1051 q 325 1029 318 1039 q 340 976 338 1014 l 340 944 q 354 488 340 825 q 367 29 367 182 q 355 -6 367 10 q 326 -21 343 -21 z "},"I":{"ha":357,"x_min":51,"x_max":300,"o":"m 171 1 q 51 43 51 1 q 93 76 51 76 l 110 76 q 122 75 115 75 q 138 82 133 75 q 143 107 143 89 q 129 429 143 225 q 117 750 117 642 q 118 821 117 789 l 119 892 q 115 968 119 938 q 83 963 100 963 q 51 996 51 963 q 72 1025 51 1013 q 124 1043 92 1038 q 222 1053 182 1053 q 251 1042 239 1053 q 263 1015 263 1031 q 253 989 263 1000 q 231 978 244 978 q 217 979 222 978 l 206 979 q 185 973 192 979 q 179 950 179 967 q 197 544 179 803 q 214 138 214 274 l 214 85 q 242 86 224 86 q 300 38 300 86 l 300 29 l 265 6 q 257 5 264 6 q 229 4 250 4 q 171 1 182 1 z "},"J":{"ha":372,"x_min":28,"x_max":274,"o":"m 99 -132 q 63 -121 76 -132 q 49 -89 49 -110 q 65 -57 49 -74 q 103 -32 82 -40 q 141 50 124 -6 q 158 164 158 106 l 160 232 q 161 299 161 261 l 160 356 l 153 496 q 122 981 143 771 q 104 976 118 978 q 63 969 82 969 q 38 980 49 969 q 28 1004 28 990 q 193 1053 28 1053 l 211 1053 q 242 1051 231 1053 q 263 1040 253 1049 q 274 1015 274 1032 q 215 979 274 979 q 215 979 215 979 q 214 981 214 979 l 211 981 l 193 981 l 193 969 q 201 863 193 933 q 208 754 208 782 q 222 485 208 656 q 233 214 233 324 l 233 158 l 233 103 q 198 -45 233 19 q 99 -132 163 -110 z "},"K":{"ha":494,"x_min":82,"x_max":454,"o":"m 410 -32 q 393 -29 401 -32 q 378 -28 386 -28 q 303 328 340 185 q 208 597 265 471 l 179 543 q 165 501 167 519 q 161 440 161 460 q 165 313 161 399 q 169 183 169 228 l 169 69 q 122 -4 169 -4 q 82 74 82 -4 q 90 261 82 135 q 100 447 100 378 l 101 567 l 101 711 q 92 871 101 788 q 82 1001 82 957 q 93 1032 82 1019 q 121 1044 104 1044 q 172 932 172 1044 l 167 647 l 193 715 q 288 946 239 832 q 338 1044 315 1008 q 375 1082 361 1082 q 402 1072 390 1082 q 414 1046 414 1061 q 339 874 414 1032 q 253 672 265 722 l 253 647 q 364 309 274 594 q 454 7 454 24 q 441 -21 454 -10 q 410 -32 428 -32 z "},"L":{"ha":347,"x_min":82,"x_max":314,"o":"m 147 -15 q 115 -2 129 -15 q 100 29 100 11 q 106 60 100 42 q 110 89 110 79 q 96 564 110 213 q 82 1038 82 864 q 92 1058 82 1050 q 115 1065 101 1065 q 144 1053 132 1065 q 157 1025 157 1042 q 165 775 157 942 q 172 525 172 590 l 174 508 l 174 492 l 174 482 l 174 475 q 178 114 178 354 l 178 78 l 285 78 q 314 36 314 57 q 303 9 314 21 q 279 -3 293 -3 q 264 0 275 -3 l 258 1 q 232 0 250 0 l 208 0 q 186 1 199 1 q 147 -15 172 -15 z "},"M":{"ha":629,"x_min":75,"x_max":538,"o":"m 483 -36 q 461 -22 469 -36 q 453 18 453 -8 l 451 224 q 450 311 450 250 q 447 603 447 440 l 447 674 q 404 486 435 607 q 361 281 374 361 l 361 272 l 357 246 q 343 183 354 215 q 300 150 329 150 q 250 281 250 150 q 235 435 250 353 q 189 639 221 518 l 147 794 l 144 628 q 151 342 144 553 l 154 247 l 157 57 q 136 4 157 28 q 88 26 101 4 q 75 89 75 47 l 78 203 q 82 315 82 278 l 79 583 l 76 853 q 79 1032 76 913 l 117 1054 q 139 1038 128 1053 q 164 992 150 1024 q 254 647 199 906 q 265 588 263 611 q 289 465 282 507 l 310 358 l 319 404 l 346 518 q 383 693 368 618 q 411 856 397 768 q 431 1029 426 960 l 431 1038 q 447 1066 433 1056 q 481 1076 461 1076 q 503 1065 493 1076 q 513 1042 513 1054 q 525 543 513 875 q 535 225 532 381 q 538 46 538 154 q 521 -11 538 14 q 483 -36 504 -36 z "},"N":{"ha":572,"x_min":75,"x_max":483,"o":"m 426 -21 q 313 265 399 -21 q 144 881 215 600 l 144 425 q 156 226 144 367 q 165 29 165 74 q 150 8 165 17 q 115 -1 135 -1 q 86 21 86 -1 l 89 61 q 92 119 92 106 q 83 353 92 193 q 75 550 75 515 l 75 728 q 79 856 75 771 q 85 983 85 929 l 85 992 q 115 1061 85 1061 q 161 1000 133 1061 q 278 642 207 900 q 372 256 318 492 q 394 160 371 261 l 396 153 q 399 394 396 288 l 401 636 l 401 1047 q 446 1082 407 1082 q 483 1028 483 1082 l 483 1019 q 475 979 475 1003 q 471 724 475 894 q 467 465 467 551 l 467 42 q 455 -1 467 19 q 426 -21 443 -21 z "},"O":{"ha":493,"x_min":61,"x_max":419,"o":"m 265 -39 q 197 -14 228 -39 q 144 54 167 11 q 85 260 104 129 q 64 468 71 350 l 63 542 l 63 617 q 61 704 61 653 q 68 851 61 788 q 96 983 74 918 q 160 1064 118 1040 q 210 1075 185 1075 q 326 1017 283 1075 q 389 871 374 951 q 414 685 411 774 q 419 499 419 586 l 419 419 q 413 331 419 396 q 407 243 407 279 l 407 238 q 399 146 399 199 q 382 65 399 107 q 335 -6 365 24 q 265 -39 304 -39 m 268 38 q 315 89 296 38 q 340 201 332 135 q 353 350 347 267 q 356 443 356 386 l 354 571 q 338 758 351 646 q 296 928 326 854 q 261 982 282 963 q 217 1001 240 1001 q 165 947 182 1001 q 138 822 144 890 q 128 682 129 749 l 126 636 q 125 583 125 617 l 125 578 q 144 349 125 485 q 210 86 167 164 q 268 38 238 38 z "},"P":{"ha":400,"x_min":68,"x_max":339,"o":"m 131 -7 q 106 6 115 -7 q 97 39 97 19 l 100 272 q 104 535 104 442 q 68 1031 104 858 q 121 1063 89 1063 q 215 1040 172 1063 q 285 978 257 1017 q 339 797 339 897 q 294 611 339 693 q 165 483 250 529 l 168 343 l 171 269 q 172 201 172 246 q 176 50 176 108 q 165 8 176 24 q 131 -7 154 -7 m 163 550 q 242 658 217 601 q 268 785 268 714 l 268 786 q 261 867 268 818 q 246 900 257 883 q 233 919 235 917 q 182 963 224 933 l 146 989 q 154 769 146 918 l 163 550 z "},"Q":{"ha":553,"x_min":61,"x_max":464,"o":"m 403 -192 q 344 -172 379 -192 l 344 -171 q 292 -110 307 -154 q 274 -25 282 -74 q 267 14 268 8 l 210 14 q 101 142 136 63 q 76 218 86 175 q 64 303 67 261 q 61 389 61 328 l 64 503 q 68 615 68 578 l 67 660 l 67 714 q 72 847 67 797 q 101 974 81 917 q 168 1057 124 1033 q 219 1069 192 1069 q 289 1054 257 1069 q 344 1013 321 1039 q 406 868 382 968 q 425 685 422 778 q 426 589 426 656 l 426 514 q 425 447 425 482 l 425 385 q 409 190 425 260 q 340 47 393 121 l 346 19 q 364 -65 354 -35 q 399 -115 378 -115 l 404 -115 q 443 -118 429 -115 q 464 -149 464 -125 q 403 -192 464 -192 m 260 56 q 297 74 269 74 l 297 72 q 349 222 349 119 l 349 596 q 344 744 349 685 q 319 890 339 822 q 295 947 310 925 q 258 985 281 969 q 208 1000 235 1000 q 167 928 183 1000 q 132 569 139 818 q 129 443 129 472 q 136 306 129 383 q 172 142 143 221 q 208 80 186 103 q 260 54 231 57 l 260 56 z "},"R":{"ha":401,"x_min":78,"x_max":374,"o":"m 340 -14 q 289 24 314 -14 l 289 28 q 264 192 285 101 q 203 410 243 282 q 151 582 172 506 l 151 35 q 144 2 151 13 q 114 -8 136 -8 q 88 2 97 -8 q 78 29 78 13 l 78 40 l 81 449 q 83 856 83 629 l 83 1026 q 90 1049 83 1043 q 119 1056 97 1056 q 183 1042 154 1056 q 233 1006 213 1029 q 289 889 276 957 q 294 825 294 861 q 291 779 294 804 q 286 747 288 754 q 274 706 283 733 q 261 669 264 678 l 244 631 l 231 594 q 248 468 232 544 q 283 326 264 392 q 333 174 297 281 l 374 51 l 374 49 q 369 8 374 25 q 340 -14 365 -14 m 149 644 q 196 699 168 664 l 217 818 q 218 838 218 825 q 203 931 218 878 q 181 973 194 956 q 154 992 168 990 l 151 853 q 147 708 147 760 q 149 644 147 660 z "},"S":{"ha":426,"x_min":54,"x_max":351,"o":"m 163 -31 q 76 -12 113 -31 q 54 17 54 0 q 63 44 54 33 q 86 54 71 54 q 126 43 100 54 q 163 32 156 32 q 210 55 189 32 q 244 115 232 78 q 269 240 269 185 q 251 366 269 300 q 200 494 232 432 l 178 539 q 124 649 143 608 q 92 736 106 689 q 71 865 71 803 q 88 960 71 915 q 140 1035 106 1004 q 226 1068 175 1068 q 275 1053 251 1068 q 308 1017 299 1039 l 285 988 q 231 1001 249 988 q 187 977 206 999 q 158 928 168 956 q 150 875 150 901 q 165 767 150 822 q 203 664 179 713 l 300 469 q 338 357 324 419 q 351 232 351 294 q 307 60 351 140 q 246 -6 283 18 q 163 -31 208 -31 z "},"T":{"ha":364,"x_min":3,"x_max":303,"o":"m 188 -10 q 155 10 167 -10 q 143 60 143 31 q 149 172 143 106 l 151 208 l 154 282 q 144 499 154 331 q 135 715 135 667 q 135 731 135 719 q 136 768 136 743 q 138 836 138 796 q 124 965 138 938 q 88 961 115 965 l 49 958 q 17 969 31 958 q 3 996 3 979 q 36 1025 3 1013 q 201 1049 85 1042 q 258 1051 249 1051 q 289 1040 275 1051 q 303 1013 303 1029 q 291 985 303 996 q 261 975 279 975 l 236 976 q 211 978 225 978 l 197 978 q 207 807 207 883 l 206 718 q 204 628 204 678 q 210 468 204 561 q 217 308 217 353 q 222 183 217 256 q 228 58 228 110 q 188 -10 228 -10 z "},"U":{"ha":557,"x_min":64,"x_max":463,"o":"m 325 -25 q 189 50 239 -25 q 113 238 135 126 q 81 490 88 356 q 74 756 74 613 l 74 871 q 75 974 75 919 q 64 1001 64 985 q 76 1031 64 1018 q 104 1044 89 1044 q 154 946 154 1044 q 161 704 154 882 q 168 463 168 526 q 181 390 175 444 q 188 301 188 336 q 197 226 188 271 q 225 135 207 181 q 272 55 243 86 q 333 24 301 24 q 366 36 353 24 q 383 72 379 49 q 392 149 392 111 l 392 419 q 382 550 392 471 q 374 682 374 638 l 374 692 q 372 732 374 714 l 371 772 q 367 890 371 811 q 361 1010 361 961 q 377 1036 361 1025 q 413 1047 393 1047 l 447 1015 l 447 992 q 442 951 447 975 q 436 907 436 913 q 450 558 436 781 q 463 196 463 325 q 449 74 463 126 q 426 22 440 42 q 386 -11 411 3 q 325 -25 363 -25 z "},"V":{"ha":486,"x_min":28,"x_max":397,"o":"m 243 -24 q 211 -8 224 -24 q 113 535 175 142 q 28 1033 43 954 q 65 1060 33 1060 q 124 882 89 1060 q 194 476 160 703 l 232 231 q 267 481 254 397 q 306 798 293 672 q 318 1036 318 924 q 368 1064 339 1064 l 397 1049 l 376 861 q 342 549 369 775 l 329 457 q 299 226 314 335 q 260 8 278 69 q 243 -24 251 -24 z "},"W":{"ha":686,"x_min":40,"x_max":615,"o":"m 222 -19 q 171 86 171 -19 q 113 563 171 153 q 40 1011 56 974 q 89 1044 58 1044 q 149 900 121 1044 q 193 550 175 747 l 203 438 q 213 342 211 343 l 226 458 l 235 531 q 258 754 253 689 q 265 872 265 840 l 265 899 q 276 928 265 914 q 301 942 288 942 q 351 900 351 942 l 351 879 q 367 709 351 800 q 414 492 383 618 q 453 313 433 418 q 479 535 457 358 q 512 809 501 696 q 522 1021 522 922 q 533 1066 522 1053 q 572 1079 543 1079 q 602 1069 589 1079 q 615 1042 615 1058 q 601 1010 615 1026 q 586 776 601 910 q 549 521 571 642 q 511 267 526 403 q 496 29 496 132 q 485 -6 496 7 q 454 -19 475 -19 q 418 38 439 -19 q 353 353 392 117 l 328 515 l 315 606 q 288 402 297 479 q 271 219 279 325 q 261 19 261 118 q 249 -7 261 6 q 222 -19 238 -19 z "},"X":{"ha":422,"x_min":47,"x_max":347,"o":"m 86 -8 q 59 -1 71 -8 q 47 18 47 7 q 49 22 47 22 q 138 392 103 240 q 165 556 165 515 q 156 633 165 588 q 117 818 147 679 l 83 968 q 79 993 79 985 q 88 1022 79 1013 q 111 1031 97 1031 q 142 997 132 1031 q 174 849 153 960 l 179 824 l 190 769 l 210 669 l 243 832 l 269 960 q 290 1032 283 1015 q 314 1051 301 1051 q 338 1043 328 1051 q 347 1021 347 1035 q 300 804 347 985 q 257 631 271 694 q 243 540 243 568 q 269 393 243 526 q 315 168 296 260 l 325 129 q 339 54 339 76 q 314 18 339 18 q 274 51 279 18 q 253 164 268 79 l 242 228 q 203 426 215 374 q 119 65 133 115 q 86 -8 100 -8 z "},"Y":{"ha":368,"x_min":21,"x_max":288,"o":"m 182 -17 q 158 -7 168 -17 q 147 17 147 3 l 150 151 q 154 286 154 242 q 142 406 154 326 q 128 526 128 483 q 113 647 128 579 q 74 778 97 715 q 36 906 51 838 q 21 1026 21 975 q 32 1043 21 1036 q 56 1050 43 1050 q 85 1018 71 1050 q 117 917 101 982 q 135 839 132 851 l 153 743 l 167 682 q 174 740 171 704 q 194 932 182 856 q 217 1013 204 985 q 250 1043 231 1043 q 288 1029 288 1043 q 254 796 288 950 q 221 561 221 642 l 218 539 q 217 514 215 518 l 217 492 q 221 308 217 432 l 224 124 l 226 92 l 229 58 l 229 24 q 215 -5 229 7 q 182 -17 201 -17 z "},"Z":{"ha":363,"x_min":33,"x_max":274,"o":"m 74 -12 q 33 21 49 -12 q 103 273 64 68 q 171 697 143 478 q 201 983 199 913 l 151 979 q 122 978 142 978 q 47 1021 47 978 l 47 1028 l 65 1050 l 65 1051 q 106 1046 82 1046 q 171 1054 128 1046 q 236 1061 219 1061 q 263 1049 253 1061 q 274 1021 274 1038 q 119 58 274 656 l 150 60 q 193 63 168 63 q 267 21 267 63 l 267 14 l 244 -7 l 160 -10 q 74 -12 121 -12 z "},"a":{"ha":415,"x_min":17,"x_max":381,"o":"m 358 -12 q 311 -3 326 -12 q 296 33 296 7 q 282 175 296 75 l 276 204 l 139 225 q 115 96 131 193 q 89 6 107 28 q 61 -7 79 -7 q 31 3 44 -7 q 17 29 17 14 l 19 36 l 21 42 q 160 746 113 399 q 161 765 160 751 q 164 803 163 778 q 173 885 168 854 q 189 931 178 915 l 236 931 q 269 922 256 931 q 283 896 283 913 q 313 582 283 790 q 340 282 340 368 q 347 239 340 274 q 354 197 354 207 q 368 114 354 188 q 381 28 381 47 l 381 26 q 358 -12 381 -4 m 267 254 q 263 306 263 275 q 240 625 263 431 l 226 769 q 144 276 167 443 q 267 254 165 263 z "},"b":{"ha":396,"x_min":82,"x_max":329,"o":"m 125 -14 q 88 13 94 -14 q 82 60 82 29 q 88 207 82 119 q 94 356 94 290 q 99 576 94 429 l 101 796 q 97 833 101 808 l 93 868 l 93 875 q 103 922 93 907 q 139 938 113 938 q 218 917 175 938 q 281 864 261 896 q 321 697 321 797 q 308 572 321 622 q 265 478 296 521 q 316 385 303 442 q 329 244 329 329 q 300 97 329 160 q 203 0 267 26 q 125 -14 164 -14 m 169 518 q 242 686 242 519 q 185 874 242 865 q 169 724 169 842 l 169 518 m 161 57 q 231 110 206 67 q 256 208 256 153 q 249 311 256 267 q 234 369 243 346 q 210 411 225 392 q 171 436 193 432 q 165 226 165 357 q 163 174 165 218 l 160 126 q 161 122 160 124 l 161 119 l 161 57 z "},"c":{"ha":388,"x_min":61,"x_max":347,"o":"m 271 -19 q 206 -10 240 -19 q 154 10 172 -1 q 61 336 61 69 l 61 374 l 61 417 l 61 450 q 63 549 61 506 q 68 644 64 593 q 81 733 72 699 q 108 810 89 767 q 149 872 125 850 q 213 910 174 894 q 299 925 247 925 q 331 915 319 925 q 342 890 342 906 q 333 865 342 876 q 311 853 324 854 l 246 853 q 197 818 218 853 q 168 728 176 783 q 150 561 150 625 l 150 554 l 147 421 q 144 286 144 361 q 149 200 144 233 q 172 117 156 150 q 229 63 189 79 q 275 54 250 54 q 306 65 290 54 q 335 58 324 65 q 347 35 347 50 q 271 -19 347 -19 z "},"d":{"ha":481,"x_min":82,"x_max":414,"o":"m 129 -8 q 93 174 93 -8 l 96 393 q 97 611 97 490 q 89 749 97 656 q 82 872 82 850 q 97 904 82 890 q 131 918 113 918 q 224 897 179 918 q 304 836 269 875 q 401 650 378 751 q 414 549 414 599 q 413 515 414 531 l 411 478 l 411 401 q 406 261 411 313 q 374 138 397 192 q 293 33 346 79 q 229 -8 268 13 l 129 -8 m 190 63 q 242 77 218 63 q 282 117 265 92 q 308 173 296 139 q 325 239 319 207 q 340 367 338 301 q 342 415 342 383 q 179 853 342 835 q 169 708 169 790 q 181 403 169 621 q 190 96 190 210 l 190 63 z "},"e":{"ha":394,"x_min":92,"x_max":326,"o":"m 149 -18 q 116 -6 131 -18 q 100 25 101 7 l 100 61 l 100 89 q 99 118 99 101 q 94 207 99 147 l 92 296 q 96 499 92 364 q 101 701 101 619 q 97 760 101 721 q 93 818 93 800 q 151 917 93 917 q 258 899 197 917 q 318 856 318 881 q 306 830 318 842 q 278 811 294 818 q 172 839 219 832 q 174 779 174 818 q 172 679 174 724 q 168 579 168 613 l 172 557 l 194 558 q 222 560 206 560 q 289 521 289 560 q 276 495 289 506 q 244 485 264 485 q 206 488 219 485 l 171 488 q 174 382 174 451 q 172 257 174 313 q 168 131 168 172 q 171 53 168 53 l 217 54 q 274 56 240 56 q 326 22 326 56 q 309 -8 326 3 q 267 -18 292 -18 l 149 -18 z "},"f":{"ha":343,"x_min":64,"x_max":333,"o":"m 114 -12 q 64 8 93 -12 q 82 363 75 124 q 92 661 89 611 l 92 694 q 97 883 97 831 q 113 914 97 903 q 150 925 129 925 q 254 917 199 925 q 312 899 290 911 q 333 868 333 886 q 263 829 333 829 q 190 843 236 843 l 174 843 l 174 826 q 168 689 174 772 q 161 549 161 611 l 161 511 l 172 511 l 186 511 q 254 475 254 511 q 240 446 254 457 q 204 435 225 435 q 150 442 171 435 l 150 49 q 114 -12 150 -12 z "},"g":{"ha":481,"x_min":68,"x_max":433,"o":"m 265 -11 q 194 3 226 -11 q 140 42 163 18 q 107 99 122 61 q 85 171 92 136 q 74 247 78 197 q 68 333 69 297 l 68 414 l 68 469 q 71 601 68 550 q 89 733 74 664 q 132 843 101 796 q 214 908 161 890 q 272 918 239 918 q 332 883 332 918 q 319 856 332 867 q 288 846 306 846 q 272 847 279 846 q 258 849 267 849 q 217 824 235 849 q 186 754 199 799 q 156 567 164 668 q 150 426 150 472 q 154 297 150 379 q 178 164 160 221 q 201 110 188 131 q 235 76 214 90 q 283 61 258 61 q 350 283 350 61 l 350 347 q 318 351 340 351 l 306 351 l 290 351 q 242 383 242 351 q 255 413 242 403 q 289 424 268 424 l 289 422 l 308 422 q 433 379 433 422 q 426 329 433 367 q 418 279 418 296 q 422 206 418 256 l 425 132 q 378 27 425 65 q 265 -11 332 -11 z "},"h":{"ha":460,"x_min":82,"x_max":378,"o":"m 329 0 q 282 229 282 0 l 283 308 l 285 372 l 285 376 l 285 390 q 286 417 286 401 q 282 424 286 419 q 278 431 278 428 l 278 432 q 253 429 271 429 q 208 435 235 429 q 164 442 200 436 l 164 282 q 168 168 164 246 q 172 54 172 92 q 161 18 172 33 q 132 3 150 3 q 94 54 106 3 q 83 192 83 107 l 86 304 q 88 404 88 351 l 88 428 l 88 447 q 86 476 88 469 l 86 483 l 90 564 q 86 721 90 617 q 82 878 82 825 q 93 907 82 894 q 121 919 104 919 q 165 836 165 919 l 163 664 q 160 490 160 586 q 235 483 181 483 l 286 483 q 289 500 289 492 q 281 697 289 567 q 271 896 271 819 q 283 922 271 911 q 311 932 294 932 q 339 925 321 932 l 351 919 q 365 393 351 722 l 378 42 q 363 11 378 22 q 329 0 349 0 z "},"i":{"ha":314,"x_min":33,"x_max":283,"o":"m 154 1 q 33 43 33 1 q 76 76 33 76 l 92 76 l 106 75 q 121 82 117 75 q 125 107 125 89 q 122 181 125 131 q 113 300 118 214 q 100 621 100 513 q 101 692 100 660 l 103 763 q 99 839 103 808 q 67 833 76 833 q 33 867 33 833 q 54 896 33 883 q 107 914 75 908 q 206 925 163 925 q 234 913 222 925 q 246 886 246 901 q 237 860 246 871 q 214 849 228 849 q 200 850 206 849 l 189 850 q 169 844 175 850 q 163 821 163 838 q 179 415 163 686 q 190 268 182 365 q 197 138 197 204 l 197 85 q 225 86 206 86 q 283 38 283 86 l 283 29 l 249 6 q 240 5 247 6 q 211 4 232 4 q 154 1 167 1 z "},"j":{"ha":353,"x_min":-3,"x_max":318,"o":"m 13 -131 q -3 -114 -3 -131 l -3 -103 q -1 -90 -1 -97 q 18 -76 -1 -85 q 108 -31 85 -56 q 147 126 147 13 q 140 482 147 218 q 132 836 132 714 l 132 842 q 119 843 128 842 q 99 844 110 844 q 58 851 74 847 q 29 865 38 857 q 26 876 26 871 q 41 899 26 889 q 71 908 56 908 q 229 899 140 908 q 318 876 318 889 q 308 853 318 863 q 281 844 297 844 l 210 844 q 217 551 210 771 q 224 260 224 389 l 224 111 q 217 29 224 63 q 178 -60 207 -22 q 86 -121 147 -103 q 13 -131 56 -131 z "},"k":{"ha":486,"x_min":88,"x_max":451,"o":"m 413 -24 q 344 46 381 -24 q 238 389 290 150 q 213 510 222 454 q 163 268 163 410 l 163 11 q 135 -21 163 -21 q 101 -9 114 -21 q 88 24 88 3 l 88 444 q 101 669 88 506 q 115 894 115 813 q 156 921 126 921 q 186 908 174 921 q 199 878 199 896 l 199 874 q 181 621 181 843 l 181 571 l 232 672 q 321 842 279 771 q 378 911 360 911 q 416 901 400 911 q 432 874 432 892 l 399 818 q 282 624 294 650 q 281 582 282 600 l 279 540 q 327 317 279 481 q 407 101 375 154 l 425 76 q 451 13 451 40 q 440 -13 451 -3 q 413 -24 428 -24 z "},"l":{"ha":372,"x_min":88,"x_max":342,"o":"m 299 -22 q 175 -6 249 -6 q 128 -19 153 -19 q 99 -5 111 -19 q 88 26 88 10 q 97 338 88 143 q 106 647 106 544 l 106 657 q 97 788 97 744 q 146 919 97 919 q 170 909 160 919 q 181 885 181 899 q 176 832 181 868 q 172 779 172 797 q 174 611 172 686 q 175 444 175 538 q 168 386 168 424 l 168 369 l 165 260 q 163 149 163 211 q 208 53 163 53 q 217 53 211 53 q 235 54 224 54 q 267 56 247 56 q 342 14 342 56 q 329 -10 342 0 q 299 -22 317 -19 z "},"m":{"ha":779,"x_min":82,"x_max":692,"o":"m 644 -72 q 601 14 601 -72 l 601 103 l 601 192 q 592 374 601 261 q 581 547 581 500 l 583 633 q 586 718 586 671 q 540 526 581 700 q 457 215 500 358 q 389 78 415 78 q 347 94 363 78 q 331 138 331 110 q 281 397 331 199 q 192 722 232 596 l 183 565 q 168 235 172 367 q 165 60 165 107 q 167 39 165 49 l 167 19 q 157 -16 167 -4 q 121 -28 147 -28 q 94 -17 107 -28 q 82 6 82 -7 q 103 431 82 147 q 124 856 124 714 q 115 882 115 868 q 131 908 115 899 q 169 917 147 917 q 236 786 188 917 q 333 490 285 656 q 396 251 382 325 q 414 321 407 289 l 422 354 q 511 706 467 549 q 563 856 538 801 q 608 914 588 914 q 644 903 628 914 q 660 876 660 893 q 668 576 660 776 q 678 288 678 390 l 676 214 l 674 140 q 678 90 674 124 l 682 42 q 684 22 683 29 q 685 14 685 15 q 692 -12 692 -4 q 678 -54 692 -36 q 644 -72 664 -72 z "},"n":{"ha":665,"x_min":99,"x_max":564,"o":"m 464 -4 q 439 5 447 -4 q 426 36 431 14 l 418 63 l 418 65 l 418 69 q 323 382 418 115 q 174 776 228 649 l 174 78 l 179 68 q 185 58 181 65 q 189 44 189 51 q 176 14 189 26 q 146 1 164 1 q 101 86 101 1 l 100 324 q 99 563 99 431 q 103 692 99 607 q 107 821 107 779 q 157 924 107 886 l 157 915 q 168 918 165 918 q 249 807 200 918 q 319 619 288 718 q 401 339 350 521 l 415 289 q 464 128 447 176 q 492 833 492 426 l 492 851 q 490 869 490 860 q 524 911 490 911 q 553 896 543 911 q 564 857 564 881 l 564 753 q 547 289 561 539 q 514 7 533 39 q 464 -4 474 -4 z "},"o":{"ha":500,"x_min":68,"x_max":433,"o":"m 247 -26 q 181 -3 211 -26 q 131 58 150 19 q 81 243 90 143 q 68 425 68 338 q 69 453 68 442 l 69 478 q 68 485 69 485 l 68 510 l 69 607 q 81 749 71 651 q 113 878 88 815 q 138 920 122 906 q 172 935 153 935 q 272 915 228 935 q 347 858 317 894 q 394 773 375 824 q 422 665 414 722 q 431 542 431 607 l 431 531 q 432 453 431 488 l 433 374 q 247 -26 433 -26 m 242 32 q 288 52 267 32 q 319 107 308 72 q 351 260 346 178 q 358 382 358 331 q 349 546 358 444 q 340 706 340 653 l 340 731 q 305 822 338 783 q 225 861 272 861 q 163 807 178 861 q 149 696 149 764 q 150 651 149 669 l 150 614 l 147 550 q 144 486 144 521 q 149 338 144 411 q 176 135 154 233 q 242 32 199 32 z "},"p":{"ha":390,"x_min":94,"x_max":339,"o":"m 115 -10 q 97 194 97 64 l 100 318 q 103 442 103 374 q 94 476 94 461 l 94 481 q 108 600 108 507 l 110 664 q 111 732 111 694 q 100 861 111 814 q 114 895 104 881 q 138 910 124 910 l 199 910 q 267 892 238 910 q 311 843 296 875 q 339 708 339 786 q 338 621 339 653 q 324 547 335 581 q 312 517 319 529 q 290 489 304 506 q 226 444 271 465 q 179 426 208 435 l 179 278 l 182 189 l 185 146 q 190 14 190 68 q 176 -15 190 -3 q 144 -26 163 -26 l 115 -10 m 181 483 q 263 718 263 496 q 258 781 263 758 q 247 808 254 797 q 226 825 240 818 q 193 833 211 833 q 178 835 193 835 l 178 756 q 179 610 178 674 q 181 515 179 538 l 181 486 l 181 483 z "},"q":{"ha":497,"x_min":68,"x_max":429,"o":"m 375 -293 q 268 -261 297 -293 q 264 -197 268 -233 l 261 -168 q 250 -106 251 -111 l 243 -72 q 238 -42 238 -42 q 126 33 161 -24 q 78 174 89 93 q 68 346 68 242 q 69 431 68 393 l 69 511 q 78 664 69 560 q 121 842 88 760 q 165 906 138 883 q 226 928 192 928 q 260 919 238 924 q 289 910 283 913 q 385 819 354 885 q 422 685 415 756 q 429 550 429 619 l 428 417 q 413 235 424 329 q 376 64 404 149 q 306 -33 350 -14 q 328 -162 306 -78 q 343 -221 336 -187 q 407 -261 407 -221 q 398 -285 407 -275 q 375 -294 389 -294 l 375 -293 m 233 4 q 274 13 253 13 q 308 78 289 13 q 342 226 328 143 q 356 347 356 310 l 356 589 q 218 874 356 874 q 178 821 194 874 q 142 563 151 743 q 138 474 138 507 l 139 371 q 146 257 140 335 q 149 213 146 243 q 178 68 154 144 q 233 4 197 4 z "},"r":{"ha":410,"x_min":82,"x_max":358,"o":"m 328 -24 q 272 43 297 -24 q 229 192 243 115 l 219 239 q 168 465 179 438 l 151 465 q 150 392 151 425 l 150 315 q 176 25 150 129 l 161 -12 l 122 -12 l 104 8 l 106 101 q 93 481 106 226 q 82 860 82 751 q 128 926 82 926 q 251 888 203 926 q 299 779 299 849 l 299 682 q 292 634 299 661 q 276 590 285 607 l 250 540 l 228 499 l 235 465 l 254 367 q 292 193 274 260 q 336 72 310 126 l 344 56 q 358 11 358 28 q 350 -13 358 -3 q 328 -24 342 -24 m 157 533 q 209 617 188 549 q 231 744 231 686 q 219 828 231 789 q 197 862 213 850 q 157 874 181 874 l 154 867 l 151 854 l 154 690 q 157 533 157 618 z "},"s":{"ha":343,"x_min":47,"x_max":282,"o":"m 110 -19 q 67 -1 85 -15 q 47 35 50 13 l 63 58 q 89 53 71 58 q 121 49 110 49 q 166 71 146 49 q 196 129 186 93 q 214 249 214 196 q 156 442 214 340 l 140 468 q 96 550 114 514 q 65 628 78 586 q 49 736 49 682 q 76 864 49 797 q 116 916 90 896 q 174 936 142 936 q 220 920 199 936 q 242 882 242 904 q 232 863 242 869 q 208 856 222 856 q 179 864 193 856 q 131 810 149 863 q 115 729 115 761 q 128 648 115 689 q 160 574 140 607 l 190 518 l 239 426 q 270 336 258 388 q 282 232 282 285 q 243 71 282 147 q 188 8 224 32 q 110 -15 153 -15 l 110 -19 z "},"t":{"ha":356,"x_min":3,"x_max":301,"o":"m 163 22 l 161 76 q 160 129 160 100 l 161 176 q 140 481 157 192 q 121 851 124 769 q 18 868 40 854 q 3 893 3 879 q 17 913 3 904 q 47 922 32 922 q 142 917 86 922 q 236 910 194 910 l 247 910 l 258 910 q 301 876 301 910 q 288 849 301 860 q 256 839 274 839 q 219 843 243 839 l 192 849 l 190 842 l 189 835 q 213 440 189 711 q 235 46 235 186 q 220 17 235 29 q 188 4 206 4 l 163 22 z "},"u":{"ha":501,"x_min":68,"x_max":426,"o":"m 233 -21 q 174 -6 200 -21 q 131 36 147 8 q 88 168 97 94 q 78 321 78 232 q 74 688 74 471 l 72 794 q 71 822 71 803 q 68 886 68 875 q 97 915 81 915 q 127 890 114 915 q 140 836 140 865 l 140 458 q 150 311 140 403 q 160 164 160 197 q 247 61 160 61 q 347 808 347 61 l 347 886 l 347 899 q 346 910 346 903 q 353 934 346 926 q 383 942 361 942 q 412 931 401 942 q 425 907 422 921 q 426 875 426 899 q 422 804 426 853 q 417 735 417 764 q 414 678 417 703 l 411 619 l 411 608 q 413 596 413 603 q 233 -21 413 -21 z "},"v":{"ha":489,"x_min":31,"x_max":435,"o":"m 192 4 q 162 335 192 164 q 68 753 132 506 q 56 796 65 767 q 31 894 31 874 q 41 917 31 907 q 64 926 51 926 q 103 892 85 926 q 136 802 121 858 q 169 663 151 746 q 210 419 186 583 l 218 365 l 235 242 q 244 168 240 190 q 319 610 274 321 q 372 947 357 857 l 403 947 q 425 938 415 947 q 435 917 435 929 q 423 809 435 867 q 388 671 411 751 q 362 567 368 601 q 350 457 356 532 q 315 156 339 289 q 275 29 300 75 q 218 -17 250 -17 l 192 4 z "},"w":{"ha":596,"x_min":40,"x_max":528,"o":"m 186 -29 q 138 54 158 -29 q 108 237 119 128 q 83 513 96 346 q 64 744 76 621 q 40 876 54 847 q 81 901 53 901 q 125 810 125 901 q 154 493 125 701 q 188 192 183 286 l 194 239 q 219 415 208 332 q 236 593 229 497 q 246 804 246 700 l 283 821 q 313 812 301 821 q 325 786 325 803 l 325 775 q 362 605 347 697 q 388 388 376 513 q 407 208 396 292 q 433 667 433 394 q 444 772 433 710 q 454 876 454 836 q 450 900 450 889 q 492 933 450 933 q 518 925 508 933 q 528 901 528 917 l 528 881 q 524 844 528 860 l 524 838 q 506 710 506 782 l 506 608 q 485 347 506 521 q 463 94 463 178 l 463 69 q 456 15 463 38 q 415 -12 447 -12 q 381 2 393 -12 q 369 39 369 17 q 346 331 369 151 q 319 493 333 411 l 297 639 q 292 560 292 599 q 281 354 292 482 q 246 106 269 226 q 186 -29 219 -29 z "},"x":{"ha":338,"x_min":33,"x_max":303,"o":"m 96 -4 q 67 4 79 -4 q 54 28 54 13 q 66 127 54 72 q 100 258 78 182 l 114 313 q 133 447 133 390 q 98 646 133 488 q 47 826 63 804 l 47 842 q 33 876 33 854 q 46 897 33 889 q 75 904 58 904 q 103 881 92 904 q 144 738 124 842 q 160 658 156 690 l 169 607 q 175 640 169 607 l 179 668 q 186 713 185 701 q 192 785 192 750 l 192 810 l 192 831 q 205 890 192 869 q 254 921 218 911 l 279 888 q 263 850 269 872 q 257 811 257 828 q 256 768 256 801 l 256 753 q 221 598 239 708 q 203 438 203 488 q 222 328 203 394 q 278 146 240 263 q 303 36 303 71 q 292 12 303 22 q 265 1 281 1 q 224 51 242 1 q 193 157 206 93 q 174 261 176 235 l 167 293 l 154 190 q 132 63 146 114 l 132 47 q 96 -4 132 -4 z "},"y":{"ha":393,"x_min":24,"x_max":325,"o":"m 199 -19 q 160 11 175 -19 q 175 247 175 40 q 168 353 175 296 l 164 393 q 160 450 160 431 l 160 486 q 109 615 146 521 q 50 774 72 710 q 24 874 24 847 l 24 881 l 56 904 q 106 843 79 901 q 155 696 128 792 q 182 594 182 600 q 204 699 188 610 q 242 856 221 788 q 290 924 265 924 q 315 915 304 924 q 325 894 325 907 q 286 694 325 824 q 244 492 244 554 l 244 74 q 199 -19 244 -19 z "},"z":{"ha":406,"x_min":68,"x_max":346,"o":"m 106 -3 q 79 6 90 -3 q 68 29 68 15 q 101 249 68 113 q 196 585 133 385 q 274 851 258 792 q 219 847 257 851 q 160 843 182 843 q 135 855 146 843 q 124 882 124 867 q 276 922 124 922 q 346 883 346 922 q 315 751 346 839 q 279 633 286 674 q 207 311 265 535 l 146 71 l 171 71 l 200 74 q 229 75 213 75 l 229 76 q 285 42 285 76 q 271 17 285 26 q 236 8 257 8 q 196 10 214 8 l 154 13 q 131 4 146 13 q 106 -3 113 -3 z "},"А":{"ha":486,"x_min":24,"x_max":404,"o":"m 358 0 q 326 8 336 0 q 315 36 315 17 l 315 218 q 247 240 297 231 q 153 253 197 250 q 131 182 138 224 l 125 154 q 117 111 124 144 q 101 53 110 78 q 85 15 93 29 q 24 43 32 15 q 58 174 39 65 l 104 428 q 160 736 135 608 q 215 950 186 864 q 276 1046 247 1046 q 321 1035 306 1046 q 347 767 321 979 q 375 482 375 558 q 390 271 375 408 q 404 47 404 131 q 358 0 404 0 m 286 299 q 314 303 297 299 q 300 454 310 364 q 268 839 268 768 l 268 850 q 230 724 254 836 q 185 485 206 613 q 163 315 164 357 q 286 299 221 299 z "},"Б":{"ha":392,"x_min":64,"x_max":358,"o":"m 158 0 q 92 7 114 0 q 73 22 78 11 q 68 53 68 33 q 67 135 67 82 q 69 249 67 176 l 71 360 q 72 450 72 390 q 71 517 72 494 l 68 689 q 65 889 68 822 q 64 1000 64 926 q 73 1035 64 1026 q 110 1044 82 1043 l 158 1046 q 272 1050 217 1050 q 311 1036 293 1050 q 321 1014 321 1028 q 306 990 321 999 q 257 978 281 978 q 151 972 167 978 q 135 945 135 967 q 135 911 135 924 l 136 853 q 139 736 139 775 q 138 663 139 688 q 137 647 136 654 q 138 635 138 640 q 139 599 139 625 q 256 568 213 603 q 328 453 297 533 q 358 285 358 372 q 357 246 358 258 q 307 101 347 164 q 238 33 275 56 q 215 20 231 29 q 186 6 200 11 q 158 0 172 0 m 150 82 q 228 121 196 89 q 271 203 261 153 q 283 303 283 247 q 268 426 283 365 q 250 469 263 449 q 224 508 238 490 q 206 535 211 526 q 175 540 190 540 l 140 539 q 146 278 143 453 l 150 82 z "},"В":{"ha":436,"x_min":82,"x_max":389,"o":"m 149 -11 q 85 24 85 -11 l 88 194 l 90 365 q 86 647 90 458 q 82 929 82 835 l 82 938 q 89 1004 82 974 q 133 1042 97 1042 q 288 979 231 1042 q 344 814 344 917 q 311 683 344 751 q 232 582 278 615 q 351 442 313 528 q 389 254 389 357 q 356 133 389 206 q 246 10 315 47 q 154 -11 204 -11 l 149 -11 m 163 603 q 224 663 199 611 q 263 757 244 701 q 276 796 267 772 l 276 844 q 246 925 276 886 q 176 964 215 964 q 157 921 157 964 q 160 757 157 829 l 163 603 m 168 61 q 276 124 236 71 q 317 250 317 176 q 306 367 317 314 q 279 449 296 421 q 249 493 264 475 q 222 517 233 511 l 211 521 l 161 521 q 168 61 168 361 z "},"Г":{"ha":349,"x_min":74,"x_max":275,"o":"m 135 0 q 115 8 121 0 q 106 33 108 15 q 103 106 101 74 q 107 249 107 153 q 103 419 107 335 q 100 550 100 506 q 99 574 100 564 q 96 590 97 583 l 92 633 q 86 769 89 678 l 83 836 q 76 968 82 878 q 83 1013 74 999 q 124 1032 93 1026 q 165 1042 133 1035 q 225 1050 197 1050 q 244 1049 238 1050 q 266 1039 258 1047 q 274 1018 274 1031 q 268 992 275 1006 q 250 975 261 979 q 235 974 246 974 q 217 975 226 974 q 197 976 208 976 q 168 972 182 976 q 155 963 158 971 q 150 940 151 956 q 157 797 149 892 q 165 674 165 714 q 169 597 164 647 l 172 564 q 178 412 175 519 q 182 218 181 304 q 183 149 182 171 q 185 43 183 78 q 177 13 186 24 q 146 1 168 3 l 135 0 z "},"Д":{"ha":532,"x_min":-22,"x_max":542,"o":"m 494 -144 q 470 -131 482 -144 q 458 -101 458 -118 q 467 31 458 -78 q 406 39 436 39 q 324 32 376 39 l 290 28 q 131 13 189 17 q 57 8 125 13 q 58 -32 57 -6 q 57 -75 58 -58 q 47 -104 56 -93 q 25 -115 38 -115 q 7 -110 18 -115 q -17 -72 -4 -100 q -19 -12 -19 -64 l -21 25 q -10 49 -22 36 q 25 64 3 63 q 106 135 88 68 q 124 212 115 167 q 135 292 132 257 q 154 572 154 475 q 151 669 154 606 q 149 735 149 714 q 147 822 149 793 q 144 972 147 940 q 154 1019 142 1000 q 193 1040 167 1038 q 274 1047 260 1047 q 325 1040 303 1047 q 342 1038 335 1038 q 354 1036 350 1038 q 391 1025 381 1033 q 401 985 401 1017 l 400 889 q 401 842 400 857 q 417 375 406 690 l 418 338 q 425 194 421 267 q 436 92 429 121 q 515 85 488 92 q 542 50 542 78 q 540 39 542 43 q 532 -22 536 11 q 526 -79 528 -56 q 525 -106 525 -86 q 519 -135 525 -125 q 494 -144 513 -144 m 161 75 q 261 82 222 81 l 360 89 q 363 133 363 119 q 360 200 363 153 q 358 232 360 210 q 356 272 356 254 l 346 493 l 346 631 l 329 950 q 325 985 329 972 q 275 992 310 992 q 217 988 244 992 l 217 769 l 217 664 q 203 329 213 475 q 185 188 199 261 q 161 75 172 114 z "},"Е":{"ha":386,"x_min":75,"x_max":325,"o":"m 163 -8 q 117 -1 136 -8 q 93 38 93 6 l 93 844 q 85 915 93 868 q 75 986 75 958 l 75 990 q 110 1040 99 1029 q 161 1046 129 1040 q 213 1051 190 1051 q 256 1038 235 1051 q 276 1007 276 1025 q 213 965 276 965 l 193 965 q 174 967 185 967 q 158 965 161 967 q 164 851 158 918 l 167 813 l 169 736 q 165 656 169 710 l 163 578 l 182 582 q 228 590 210 590 q 256 578 243 590 q 268 551 268 567 q 258 522 268 535 q 232 508 247 508 l 215 510 l 197 510 q 168 500 176 510 l 168 71 l 246 75 q 325 39 325 75 l 325 33 q 294 6 317 17 q 251 -7 272 -4 l 206 -8 l 163 -8 z "},"Ё":{"ha":386,"x_min":64,"x_max":390,"o":"m 163 -8 q 117 -1 136 -8 q 93 38 93 6 l 93 844 q 85 915 93 868 q 75 986 75 958 l 75 990 q 110 1040 99 1029 q 161 1046 129 1040 q 213 1051 190 1051 q 256 1038 235 1051 q 276 1007 276 1025 q 213 965 276 965 l 193 965 q 174 967 185 967 q 158 965 161 967 q 164 851 158 918 l 167 813 l 169 736 q 165 656 169 710 l 163 578 l 182 582 q 228 590 210 590 q 256 578 243 590 q 268 551 268 567 q 258 522 268 535 q 232 508 247 508 l 215 510 l 197 510 q 168 500 176 510 l 168 71 l 246 75 q 325 39 325 75 l 325 33 q 294 6 317 17 q 251 -7 272 -4 l 206 -8 l 163 -8 m 111 1089 q 78 1104 93 1089 q 64 1139 64 1119 q 80 1176 64 1160 q 117 1192 96 1192 q 151 1176 136 1192 q 165 1140 165 1160 q 150 1103 165 1118 q 111 1089 135 1089 m 335 1082 q 302 1097 317 1082 q 288 1132 288 1113 q 303 1169 288 1153 q 340 1185 319 1185 q 375 1169 360 1185 q 390 1133 390 1153 q 374 1097 390 1111 q 335 1082 358 1082 z "},"Ж":{"ha":760,"x_min":35,"x_max":732,"o":"m 83 -37 q 43 1 43 -28 q 60 34 43 19 q 97 49 76 49 q 144 81 131 49 q 165 138 158 113 q 178 208 171 164 q 211 371 193 310 q 225 407 215 388 q 238 433 235 426 l 254 465 q 204 521 224 478 q 183 614 185 564 q 169 779 181 703 q 136 908 161 835 q 86 947 122 953 q 52 957 69 944 q 35 989 35 969 q 52 1024 36 1008 q 88 1040 68 1040 q 182 996 149 1040 q 231 888 215 949 q 249 799 244 832 q 254 718 253 765 q 256 676 254 706 q 260 615 257 647 q 282 541 263 568 q 344 500 301 514 l 340 654 l 336 826 q 339 996 336 893 q 363 1038 342 1025 q 386 1043 372 1043 q 415 1031 403 1043 q 428 1000 428 1019 q 425 969 428 989 q 422 938 422 947 q 414 682 414 779 l 414 619 q 410 499 414 529 q 446 520 435 510 q 460 544 457 531 q 474 626 465 572 q 488 708 476 643 l 501 782 q 531 921 518 876 q 574 996 544 965 q 663 1035 608 1035 q 685 1033 678 1035 q 726 1003 713 1029 q 732 981 732 992 q 721 956 732 965 q 690 947 710 946 q 663 954 674 954 q 611 926 633 954 q 581 857 589 897 q 572 810 576 835 q 564 760 568 785 q 531 573 546 644 q 494 469 515 501 q 539 378 525 426 q 558 268 553 331 q 576 129 563 219 q 594 86 582 103 q 626 69 607 69 q 638 71 633 69 q 656 72 643 72 q 696 46 690 72 q 697 32 697 42 q 691 8 697 19 q 675 -8 685 -3 q 614 -25 642 -25 q 575 -15 593 -25 q 533 30 550 -1 q 510 100 517 61 q 502 147 506 119 q 497 190 499 175 l 485 276 q 478 333 483 282 q 447 438 474 383 l 419 436 q 425 147 419 300 l 428 46 q 416 12 428 25 q 385 -1 404 -1 q 356 13 368 0 q 343 44 343 26 l 350 440 q 300 407 321 447 q 274 333 279 367 q 257 243 263 285 q 251 213 254 235 l 244 172 q 226 80 236 119 q 200 11 217 40 q 164 -28 186 -15 q 113 -42 142 -42 q 83 -37 99 -42 z "},"З":{"ha":479,"x_min":42,"x_max":432,"o":"m 208 -11 q 139 39 160 -6 q 128 64 131 56 q 107 113 114 92 q 100 156 100 133 l 101 171 q 110 197 103 186 q 128 211 117 208 q 159 203 143 214 q 179 178 175 193 q 190 139 185 164 q 213 67 199 101 q 240 49 221 49 q 257 51 246 49 q 325 114 307 72 q 358 269 358 194 q 351 338 358 299 q 349 365 350 351 q 346 392 347 378 q 314 467 339 439 q 242 507 289 494 q 219 512 238 508 q 190 526 201 515 q 178 551 178 536 q 240 604 175 590 q 299 647 276 614 q 351 789 351 696 q 333 903 351 844 q 296 952 325 935 q 233 969 267 969 q 154 929 186 969 q 135 900 149 922 q 101 854 111 861 q 79 843 90 843 q 53 852 63 843 q 43 872 44 861 q 42 889 42 878 q 69 972 42 935 q 138 1032 96 1010 q 222 1054 181 1054 q 324 1028 271 1054 q 414 913 397 992 q 424 825 424 869 q 406 700 424 764 q 333 578 389 636 l 306 565 q 388 499 351 556 q 424 385 424 442 q 428 338 424 361 q 431 303 431 313 q 432 263 432 289 q 410 117 432 183 q 251 -15 368 -15 q 208 -11 232 -15 z "},"И":{"ha":579,"x_min":64,"x_max":489,"o":"m 138 -14 q 100 4 117 -14 q 85 44 83 22 q 89 189 89 115 q 86 383 89 253 q 76 563 85 443 q 72 631 75 586 q 68 711 69 676 q 67 782 67 735 l 68 924 q 65 958 68 936 l 64 990 q 76 1025 64 1013 q 107 1038 88 1038 q 153 1000 147 1038 q 158 938 158 958 q 154 888 158 913 q 147 794 147 836 l 149 753 q 154 518 154 625 l 154 353 q 157 224 154 310 l 165 222 l 182 276 q 261 532 224 417 q 303 700 281 586 q 321 781 313 750 l 390 1031 q 414 1058 400 1049 q 442 1065 428 1067 q 474 1042 458 1061 q 488 1006 489 1024 q 479 904 486 957 q 465 686 467 731 q 460 407 460 500 q 467 267 460 363 q 475 142 474 172 l 481 72 q 467 26 482 43 q 426 10 451 10 q 400 20 411 10 q 388 49 389 31 l 388 61 l 389 340 l 389 390 q 383 613 386 463 l 383 669 l 383 761 q 376 763 382 763 q 352 699 368 761 q 322 576 336 638 q 304 497 308 514 q 289 429 292 438 q 226 209 250 297 q 188 31 203 121 q 138 -14 179 -14 z "},"Й":{"ha":579,"x_min":64,"x_max":488,"o":"m 138 -14 q 100 4 117 -14 q 85 44 83 22 q 89 189 89 115 q 86 383 89 253 q 76 563 85 443 q 72 631 75 586 q 68 711 69 676 q 67 782 67 735 l 68 924 q 65 958 68 936 l 64 990 q 76 1025 64 1013 q 107 1038 88 1038 q 153 1000 147 1038 q 158 938 158 958 q 154 888 158 913 q 147 794 147 836 l 149 753 q 154 518 154 625 l 154 353 q 157 224 154 310 l 165 222 l 182 276 q 261 532 224 417 q 303 700 281 586 q 321 781 313 750 l 390 1031 q 414 1058 400 1049 q 442 1065 428 1067 q 474 1042 458 1061 q 488 1006 489 1024 q 479 904 486 957 q 465 686 467 731 q 460 407 460 500 q 467 267 460 363 q 475 142 474 172 l 481 72 q 467 26 482 43 q 426 10 451 10 q 400 20 411 10 q 388 49 389 31 l 388 61 l 389 340 l 389 390 q 383 613 386 463 l 383 669 l 383 761 q 376 763 382 763 q 352 699 368 761 q 322 576 336 638 q 304 497 308 514 q 289 429 292 438 q 226 209 250 297 q 188 31 203 121 q 138 -14 179 -14 m 257 1136 q 178 1167 207 1139 q 146 1242 149 1194 l 146 1246 q 171 1278 146 1269 q 199 1276 183 1282 q 221 1260 215 1271 q 225 1249 224 1256 q 228 1239 226 1243 q 251 1218 236 1218 q 269 1226 261 1218 q 300 1279 288 1246 q 329 1307 314 1311 q 355 1290 344 1303 q 361 1264 365 1276 q 336 1201 349 1226 q 301 1158 324 1176 q 277 1145 292 1151 q 257 1136 263 1139 z "},"К":{"ha":449,"x_min":64,"x_max":408,"o":"m 340 -24 q 278 4 304 -24 q 250 72 253 32 q 239 260 242 131 l 236 346 q 214 416 236 382 q 157 456 192 450 q 167 28 167 167 q 139 -11 167 -11 q 117 -6 128 -11 q 94 35 90 7 q 106 197 106 117 q 101 319 106 256 q 100 413 100 350 q 99 474 99 432 q 86 817 93 701 q 65 994 82 886 q 64 1011 64 1000 q 100 1061 64 1054 q 134 1049 121 1065 q 149 1008 147 1033 q 151 966 150 990 q 153 928 153 942 l 154 882 q 157 764 157 801 l 157 517 q 188 607 169 546 q 215 711 206 668 q 224 765 219 733 q 232 814 229 797 q 257 957 242 903 q 325 1050 275 1021 q 360 1063 346 1063 q 386 1056 369 1063 q 408 1014 408 1046 q 379 983 408 990 q 307 910 324 974 q 289 825 297 871 q 272 746 279 764 q 246 629 249 674 q 233 563 242 592 q 207 515 225 535 q 267 467 242 510 q 299 354 292 424 q 317 143 304 306 l 319 113 q 353 74 324 78 q 385 56 375 67 q 394 28 394 46 q 379 -9 394 6 q 340 -24 364 -24 z "},"Л":{"ha":531,"x_min":28,"x_max":439,"o":"m 97 -25 q 81 -28 86 -28 q 36 -11 64 -28 q 28 6 28 -6 q 40 22 28 18 q 87 58 74 33 q 106 108 100 82 q 115 146 113 135 q 140 378 140 236 q 143 435 140 396 q 146 490 146 471 q 143 646 146 543 l 142 724 q 139 967 139 868 q 141 1006 139 981 q 149 1036 143 1031 q 164 1043 154 1042 q 176 1044 174 1044 q 208 1052 182 1046 q 260 1058 233 1058 q 281 1057 274 1058 q 340 1048 293 1051 q 392 1044 386 1044 q 397 1040 397 1044 q 403 1017 400 1033 q 399 932 404 1003 l 396 882 q 403 753 396 829 q 418 497 410 664 q 424 286 421 356 l 432 106 l 436 69 q 439 33 439 44 q 433 11 439 21 q 417 -3 428 1 q 396 -6 410 -6 q 365 6 378 -6 q 353 42 353 17 q 354 274 354 119 q 333 715 354 504 q 327 860 329 760 q 325 996 325 960 l 211 994 q 211 967 210 994 q 213 933 213 939 q 211 731 211 872 l 211 650 q 212 577 213 608 q 211 525 211 546 q 210 399 210 482 q 197 185 210 292 q 182 95 190 131 q 156 28 174 60 q 97 -25 135 -10 z "},"М":{"ha":629,"x_min":75,"x_max":538,"o":"m 483 -36 q 461 -22 469 -36 q 453 18 453 -8 l 451 224 q 450 311 450 250 q 447 603 447 440 l 447 674 q 404 486 435 607 q 361 281 374 361 l 361 272 l 357 246 q 343 183 354 215 q 300 150 329 150 q 250 281 250 150 q 235 435 250 353 q 189 639 221 518 l 147 794 l 144 628 q 151 342 144 553 l 154 247 l 157 57 q 136 4 157 28 q 88 26 101 4 q 75 89 75 47 l 78 203 q 82 315 82 278 l 79 583 l 76 853 q 79 1032 76 913 l 117 1054 q 139 1038 128 1053 q 164 992 150 1024 q 254 647 199 906 q 265 588 263 611 q 289 465 282 507 l 310 358 l 319 404 l 346 518 q 383 693 368 618 q 411 856 397 768 q 431 1029 426 960 l 431 1038 q 447 1066 433 1056 q 481 1076 461 1076 q 503 1065 493 1076 q 513 1042 513 1054 q 525 543 513 875 q 535 225 532 381 q 538 46 538 154 q 521 -11 538 14 q 483 -36 504 -36 z "},"Н":{"ha":458,"x_min":64,"x_max":367,"o":"m 326 -21 q 299 -8 308 -21 q 290 25 290 6 q 279 515 290 315 q 232 521 246 521 q 150 511 175 521 q 163 276 150 433 q 174 40 174 110 q 165 15 174 26 q 144 3 157 3 q 111 67 126 3 q 75 463 89 161 q 65 901 65 667 q 64 1024 64 944 q 88 1049 64 1049 q 116 1042 101 1049 q 138 1026 131 1035 q 132 922 132 982 q 138 781 132 864 q 142 636 142 685 l 142 611 q 140 585 140 600 q 143 549 140 571 q 171 550 151 549 q 210 554 190 551 q 278 558 256 558 q 275 782 278 679 l 272 1014 l 272 1051 q 304 1045 290 1051 q 325 1029 318 1039 q 340 976 338 1014 l 340 944 q 354 488 340 825 q 367 29 367 182 q 355 -6 367 10 q 326 -21 343 -21 z "},"О":{"ha":493,"x_min":61,"x_max":419,"o":"m 265 -39 q 197 -14 228 -39 q 144 54 167 11 q 85 260 104 129 q 64 468 71 350 l 63 542 l 63 617 q 61 704 61 653 q 68 851 61 788 q 96 983 74 918 q 160 1064 118 1040 q 210 1075 185 1075 q 326 1017 283 1075 q 389 871 374 951 q 414 685 411 774 q 419 499 419 586 l 419 419 q 413 331 419 396 q 407 243 407 279 l 407 238 q 399 146 399 199 q 382 65 399 107 q 335 -6 365 24 q 265 -39 304 -39 m 268 38 q 315 89 296 38 q 340 201 332 135 q 353 350 347 267 q 356 443 356 386 l 354 571 q 338 758 351 646 q 296 928 326 854 q 261 982 282 963 q 217 1001 240 1001 q 165 947 182 1001 q 138 822 144 890 q 128 682 129 749 l 126 636 q 125 583 125 617 l 125 578 q 144 349 125 485 q 210 86 167 164 q 268 38 238 38 z "},"П":{"ha":483,"x_min":64,"x_max":392,"o":"m 358 -14 q 328 -6 336 -14 q 318 26 321 3 l 306 289 l 307 328 l 308 457 q 307 760 308 658 q 306 911 306 793 l 307 967 q 301 985 307 982 q 271 992 296 989 q 231 994 243 994 q 157 979 192 994 q 147 899 149 960 q 146 749 146 838 q 147 567 144 728 l 147 454 q 153 378 147 428 q 158 289 158 319 q 156 239 158 269 l 154 196 l 161 38 q 150 8 161 18 q 119 0 139 -1 q 81 38 81 0 q 85 331 85 183 l 85 396 q 79 557 82 504 q 74 676 76 599 q 64 999 69 786 q 74 1034 64 1022 q 107 1047 85 1046 q 325 1050 251 1050 q 369 1033 351 1050 q 381 993 386 1017 q 375 917 375 960 q 376 868 375 885 q 377 838 376 856 q 376 796 378 819 q 375 719 375 765 q 368 578 372 619 q 372 476 369 546 q 376 376 374 406 q 372 322 372 350 q 381 224 372 290 q 388 147 386 175 l 389 114 q 392 49 392 69 l 390 18 q 358 -14 392 -14 z "},"Р":{"ha":400,"x_min":68,"x_max":339,"o":"m 131 -7 q 106 6 115 -7 q 97 39 97 19 l 100 272 q 104 535 104 442 q 68 1031 104 858 q 121 1063 89 1063 q 215 1040 172 1063 q 285 978 257 1017 q 339 797 339 897 q 294 611 339 693 q 165 483 250 529 l 168 343 l 171 269 q 172 201 172 246 q 176 50 176 108 q 165 8 176 24 q 131 -7 154 -7 m 163 550 q 242 658 217 601 q 268 785 268 714 l 268 786 q 261 867 268 818 q 246 900 257 883 q 233 919 235 917 q 182 963 224 933 l 146 989 q 154 769 146 918 l 163 550 z "},"С":{"ha":468,"x_min":61,"x_max":444,"o":"m 275 -22 q 203 -4 236 -22 q 147 44 171 14 q 110 119 126 74 q 85 213 93 164 q 63 428 68 294 q 61 538 61 460 l 61 625 q 63 703 63 663 q 72 832 63 785 q 68 875 68 853 q 131 1010 68 958 q 289 1061 193 1061 q 356 1042 325 1061 q 386 993 386 1022 q 375 971 386 979 q 347 963 364 963 q 317 967 333 963 q 297 979 301 971 l 279 979 l 279 982 q 193 960 228 982 q 154 900 168 942 q 146 861 149 885 q 143 818 143 838 q 142 774 142 807 l 144 725 l 146 678 q 140 629 146 657 q 133 581 133 594 l 133 547 q 138 399 133 493 q 156 240 139 319 q 203 115 168 167 q 293 63 236 63 q 351 88 317 63 q 404 113 389 113 q 444 92 424 113 q 406 13 444 40 q 319 -19 369 -12 q 275 -22 292 -22 z "},"Т":{"ha":364,"x_min":3,"x_max":303,"o":"m 188 -10 q 155 10 167 -10 q 143 60 143 31 q 149 172 143 106 l 151 208 l 154 282 q 144 499 154 331 q 135 715 135 667 q 135 731 135 719 q 136 768 136 743 q 138 836 138 796 q 124 965 138 938 q 88 961 115 965 l 49 958 q 17 969 31 958 q 3 996 3 979 q 36 1025 3 1013 q 201 1049 85 1042 q 258 1051 249 1051 q 289 1040 275 1051 q 303 1013 303 1029 q 291 985 303 996 q 261 975 279 975 l 236 976 q 211 978 225 978 l 197 978 q 207 807 207 883 l 206 718 q 204 628 204 678 q 210 468 204 561 q 217 308 217 353 q 222 183 217 256 q 228 58 228 110 q 188 -10 228 -10 z "},"У":{"ha":367,"x_min":18,"x_max":325,"o":"m 129 -8 q 99 3 110 -8 q 92 33 89 15 l 143 217 q 144 232 144 222 q 143 246 144 242 l 135 282 q 122 341 131 300 q 107 414 113 382 q 76 595 97 457 q 40 843 56 733 l 33 886 q 18 1006 18 972 q 25 1042 18 1033 q 46 1049 32 1049 q 69 1045 57 1049 q 88 1036 81 1042 q 96 1008 96 1028 l 94 981 q 111 879 94 974 l 125 789 q 128 707 124 749 q 144 607 133 665 q 150 579 147 596 q 167 439 158 531 q 171 400 168 422 q 175 367 174 378 q 199 538 189 438 q 201 568 199 549 q 221 804 210 650 q 226 889 224 828 l 229 939 q 232 976 232 958 q 233 997 232 981 q 236 1024 233 1013 q 244 1042 239 1035 q 274 1054 253 1054 q 315 1040 299 1054 q 325 1013 325 1032 q 324 990 325 1000 q 321 971 322 979 q 303 797 313 899 l 286 643 q 274 542 282 611 q 236 264 253 350 q 208 136 231 228 q 181 31 186 44 q 163 3 176 14 q 129 -8 149 -8 z "},"Ф":{"ha":543,"x_min":61,"x_max":469,"o":"m 279 -33 q 246 -12 253 -33 q 242 24 244 -10 q 238 69 239 57 q 188 78 226 72 q 126 106 150 85 q 92 163 101 126 q 72 271 76 221 q 61 640 61 518 q 76 888 61 738 q 93 938 79 911 q 111 974 107 965 q 160 999 121 996 q 200 1003 197 1003 q 218 1000 207 1003 q 221 1044 218 1019 q 229 1082 224 1069 q 233 1089 231 1088 q 243 1090 236 1090 l 249 1090 q 275 1085 269 1090 q 285 1065 283 1079 q 285 1032 286 1050 q 286 1004 285 1014 q 343 992 306 1004 q 406 951 381 981 q 437 897 426 928 q 457 822 447 867 q 469 678 469 760 q 465 565 469 622 q 461 443 461 506 q 456 319 458 363 q 439 186 450 238 q 308 68 414 75 q 311 33 310 57 q 311 -6 313 8 q 299 -24 308 -17 q 279 -33 290 -32 m 222 917 q 221 954 221 929 q 174 950 190 956 q 156 929 157 944 l 147 899 q 132 828 132 858 q 133 813 132 818 q 135 785 135 804 q 133 765 135 772 q 126 647 126 717 q 129 529 126 610 q 132 390 132 435 q 135 284 132 326 q 149 200 138 242 q 240 132 165 133 l 222 917 m 308 131 q 347 148 335 131 q 375 201 360 165 q 397 291 392 244 q 403 399 403 338 l 404 503 q 407 610 407 575 q 400 742 407 686 q 365 889 390 803 q 338 932 356 915 q 294 949 319 949 q 289 846 289 949 q 290 741 289 786 q 292 686 292 696 q 297 492 292 636 l 300 358 l 303 258 q 308 131 303 171 z "},"Х":{"ha":422,"x_min":47,"x_max":347,"o":"m 86 -8 q 59 -1 71 -8 q 47 18 47 7 q 49 22 47 22 q 138 392 103 240 q 165 556 165 515 q 156 633 165 588 q 117 818 147 679 l 83 968 q 79 993 79 985 q 88 1022 79 1013 q 111 1031 97 1031 q 142 997 132 1031 q 174 849 153 960 l 179 824 l 190 769 l 210 669 l 243 832 l 269 960 q 290 1032 283 1015 q 314 1051 301 1051 q 338 1043 328 1051 q 347 1021 347 1035 q 300 804 347 985 q 257 631 271 694 q 243 540 243 568 q 269 393 243 526 q 315 168 296 260 l 325 129 q 339 54 339 76 q 314 18 339 18 q 274 51 279 18 q 253 164 268 79 l 242 228 q 203 426 215 374 q 119 65 133 115 q 86 -8 100 -8 z "},"Ч":{"ha":451,"x_min":56,"x_max":361,"o":"m 360 44 q 349 6 361 21 q 315 -8 336 -8 q 288 6 299 -8 q 276 40 276 21 q 281 122 276 81 q 283 185 283 164 l 271 469 q 269 495 271 478 q 268 538 268 513 q 271 572 268 564 q 245 505 260 535 q 228 469 231 475 q 150 418 201 418 q 99 433 121 418 q 71 474 76 447 q 60 553 63 507 q 56 717 56 607 q 59 914 56 818 q 68 1028 63 1010 q 100 1053 76 1053 q 128 1042 117 1053 q 146 1004 146 1025 q 139 797 140 894 l 136 721 q 135 688 136 701 q 132 665 133 674 q 129 635 131 653 q 128 594 128 618 q 135 516 131 547 q 151 485 139 485 q 201 542 167 485 q 228 606 219 572 q 247 690 238 639 l 256 726 q 267 817 263 761 q 272 922 271 872 l 274 956 q 285 1046 274 1038 q 303 1051 290 1051 q 333 1042 319 1051 q 356 985 358 1028 q 338 725 340 821 q 336 690 338 701 l 335 592 q 342 436 335 522 q 350 289 347 368 q 356 175 353 207 q 358 105 357 139 q 360 44 360 71 z "},"Ц":{"ha":457,"x_min":64,"x_max":467,"o":"m 425 -214 q 403 -207 413 -214 q 393 -190 393 -200 l 394 -71 q 396 14 396 -37 q 283 8 357 13 q 157 -1 210 3 q 113 17 126 -6 q 100 67 100 40 q 85 358 89 261 q 69 769 74 633 l 68 833 l 68 882 q 64 1000 68 933 l 64 1013 q 67 1028 64 1022 q 79 1038 69 1035 q 107 1034 88 1040 q 131 1019 126 1028 q 144 940 144 986 q 140 831 144 885 q 138 784 139 811 q 136 719 136 757 q 135 581 135 664 q 139 419 135 486 q 157 193 143 353 q 160 146 160 154 q 163 103 160 124 q 174 51 165 82 l 288 67 l 288 149 q 283 288 288 219 q 281 393 281 360 l 272 726 q 269 949 269 863 l 268 986 q 278 1044 268 1026 q 303 1060 285 1060 q 325 1054 314 1060 q 350 1001 350 1042 q 348 969 350 988 q 344 942 346 950 q 342 824 343 901 q 340 690 340 747 l 340 557 l 340 489 q 346 353 342 471 q 351 178 350 236 l 351 192 q 358 74 353 161 q 379 74 368 74 q 408 75 390 75 q 453 60 439 74 q 467 18 467 47 q 465 -63 467 -17 q 463 -135 464 -110 l 460 -186 q 450 -206 458 -199 q 428 -214 442 -214 l 425 -214 z "},"Ш":{"ha":661,"x_min":64,"x_max":572,"o":"m 174 4 q 125 27 143 7 q 107 79 107 47 l 107 110 q 108 137 107 121 q 107 174 108 153 l 93 428 l 90 493 q 85 624 88 582 l 79 697 q 68 839 71 792 q 65 1014 65 876 l 64 1026 q 74 1048 64 1042 q 107 1053 83 1054 q 128 1044 117 1051 q 146 1033 140 1036 q 153 1019 153 1028 q 151 1007 153 1013 q 150 996 150 1001 q 153 719 151 900 q 154 594 156 538 q 156 531 156 574 q 158 451 157 499 q 164 340 160 403 q 182 111 168 269 l 186 68 l 304 68 l 304 311 q 303 562 304 449 q 297 792 301 675 q 292 971 292 931 q 288 1001 288 1000 q 290 1015 288 1011 q 322 1038 300 1038 q 346 1029 333 1038 q 367 978 367 1015 q 365 889 365 956 q 364 756 364 822 l 364 508 l 364 379 q 367 211 364 304 q 371 69 369 118 q 393 65 371 67 q 440 63 415 63 q 493 65 471 63 q 494 88 493 76 q 496 111 496 100 l 496 411 q 493 601 496 538 l 488 740 q 479 993 483 796 l 478 1017 q 488 1049 478 1036 q 517 1065 504 1065 q 539 1056 528 1065 q 553 1007 556 1043 q 547 950 547 968 l 551 840 q 554 731 554 768 l 564 283 l 564 194 q 569 63 564 107 q 556 21 572 40 q 517 1 540 1 l 174 4 z "},"Щ":{"ha":692,"x_min":64,"x_max":701,"o":"m 640 -249 q 611 -214 611 -244 q 615 -111 617 -103 q 617 21 617 -86 q 599 22 611 21 q 579 21 588 22 q 358 -3 506 14 q 279 -7 319 -7 q 151 3 226 -7 q 120 18 129 7 q 111 50 111 29 q 99 331 103 265 l 94 392 q 88 485 89 451 q 86 574 86 513 q 85 633 85 594 l 75 842 l 75 881 q 74 933 75 890 q 65 1004 72 976 q 64 1018 64 1010 q 73 1035 64 1031 q 103 1040 82 1040 q 157 993 151 1040 q 161 863 161 950 l 163 807 q 160 697 163 764 l 158 626 l 158 568 q 160 508 158 528 q 167 413 161 475 l 171 347 l 181 199 q 186 68 183 157 q 253 56 215 56 q 310 61 271 56 q 303 354 310 176 l 292 624 l 282 865 q 276 1014 279 914 l 276 1019 q 284 1041 276 1035 q 310 1047 292 1047 q 344 1035 331 1047 q 358 1001 358 1022 q 357 863 358 872 q 356 826 357 858 q 356 615 356 794 l 354 538 q 367 269 354 440 q 376 103 376 179 q 375 65 376 75 q 458 74 383 71 q 499 78 499 76 l 500 124 q 501 181 503 163 q 488 656 496 422 q 481 775 486 693 l 475 890 l 475 935 q 490 1017 475 992 q 503 1028 496 1025 q 521 1029 510 1031 q 548 1018 538 1028 q 558 994 558 1008 q 556 982 558 990 q 544 894 544 949 l 546 826 q 556 446 549 621 q 565 293 560 354 l 574 171 q 574 140 575 153 q 574 118 574 126 l 574 89 q 672 83 646 89 q 701 56 701 78 q 697 33 701 46 q 688 -46 690 -1 q 682 -147 685 -81 l 683 -196 q 682 -221 683 -215 q 640 -249 675 -251 z "},"Ь":{"ha":419,"x_min":63,"x_max":374,"o":"m 135 0 q 91 18 111 -1 q 71 63 71 38 l 71 108 q 72 251 71 207 q 73 309 72 281 q 72 351 74 338 q 65 454 65 393 l 67 533 q 65 646 68 571 l 64 685 l 64 961 q 70 1020 63 999 q 99 1042 78 1042 q 129 1024 121 1042 q 138 976 138 1007 l 136 933 l 121 689 l 122 597 q 217 571 171 599 q 336 460 299 532 q 374 310 374 389 q 364 215 374 264 q 338 129 354 167 q 258 36 310 68 q 135 0 206 4 m 153 69 q 218 97 190 69 q 283 201 260 140 q 306 325 306 261 q 278 450 306 397 q 185 535 251 503 q 143 546 163 546 q 121 542 133 546 l 146 176 l 153 69 z "},"Ъ":{"ha":506,"x_min":0,"x_max":460,"o":"m 25 1042 l 24 1042 l 25 1042 m 451 385 q 460 304 460 343 q 438 151 460 243 q 401 78 426 107 q 346 34 375 50 q 265 -3 317 18 q 231 -10 247 -10 q 183 3 207 -10 q 157 44 156 15 q 158 210 157 156 l 160 289 q 163 446 163 394 q 160 576 163 533 q 157 653 157 629 q 160 760 157 690 l 161 861 l 160 960 l 61 968 q 7 1006 32 969 q 0 1022 0 1015 q 24 1042 0 1039 q 143 1033 26 1039 q 167 1035 156 1033 q 190 1038 179 1038 q 221 1031 207 1038 q 238 1013 233 1024 q 240 976 239 1000 q 240 933 240 951 q 235 828 240 900 q 232 776 235 810 l 228 724 q 225 686 226 711 q 224 633 224 661 q 226 607 224 607 q 247 602 235 606 q 269 597 260 599 q 326 579 301 596 q 383 532 351 563 q 427 469 413 504 q 451 385 442 433 m 372 233 q 375 293 375 253 q 328 481 375 400 q 285 520 311 508 q 221 535 260 532 q 231 296 226 382 q 240 153 236 201 l 247 60 q 336 122 311 81 q 372 233 361 164 z "},"Ы":{"ha":597,"x_min":64,"x_max":506,"o":"m 503 57 q 506 38 506 43 q 499 12 506 22 q 479 0 492 1 q 442 8 454 -1 q 429 46 431 18 l 428 104 q 425 219 428 142 q 419 365 422 317 l 413 581 q 407 785 410 715 l 404 868 l 404 965 l 404 1015 q 413 1044 406 1032 q 435 1057 421 1057 q 456 1051 446 1057 q 476 1028 472 1043 q 479 993 481 1014 l 479 811 q 474 569 476 725 q 476 535 475 568 q 479 418 478 501 q 489 267 488 314 q 503 57 494 94 m 313 485 q 338 394 328 456 q 347 290 347 333 q 317 153 347 228 q 239 40 288 78 q 194 15 211 21 q 143 4 176 8 q 122 3 135 3 q 87 10 100 3 q 71 31 74 18 q 75 167 71 103 q 81 332 81 258 q 74 550 81 433 q 69 655 71 594 q 65 747 67 715 l 64 811 q 67 1001 64 874 q 83 1032 68 1021 q 118 1040 97 1043 q 149 1023 138 1038 q 157 990 161 1008 q 143 829 143 932 q 142 775 143 793 q 140 734 140 758 q 139 686 140 710 l 138 600 q 160 603 151 603 q 245 567 203 603 q 313 485 288 532 m 244 121 q 274 206 264 165 q 285 296 285 246 q 236 479 285 385 q 142 540 200 549 l 146 268 q 149 164 149 240 q 147 126 149 132 q 144 107 144 113 q 153 72 144 89 q 185 83 163 75 q 222 99 207 90 q 244 121 238 108 z "},"Э":{"ha":488,"x_min":35,"x_max":414,"o":"m 133 0 q 64 26 90 0 q 35 89 38 53 q 45 110 35 103 q 71 118 56 118 q 88 114 79 118 q 113 94 96 108 q 146 69 129 75 q 171 65 158 65 q 238 92 203 65 q 310 183 288 128 q 340 310 333 238 q 340 338 342 321 q 339 365 339 354 l 342 481 q 338 515 342 514 q 292 511 340 514 q 203 508 243 508 q 172 513 181 508 q 163 529 163 517 q 181 567 163 554 q 228 578 200 581 q 294 575 250 575 q 329 574 307 574 q 331 603 331 582 q 319 709 331 647 q 290 828 308 771 q 279 865 286 840 q 264 910 272 890 q 242 947 256 931 q 213 970 226 963 q 176 978 199 978 q 103 957 144 978 q 82 951 89 951 q 64 960 71 951 q 56 976 56 968 q 66 995 56 986 q 89 1010 76 1004 q 158 1038 132 1029 q 215 1044 185 1046 q 294 1017 268 1040 q 346 942 321 993 q 393 740 383 864 l 401 656 q 414 488 414 556 q 411 432 414 468 q 407 356 407 394 q 343 100 414 215 q 257 19 306 38 q 133 0 208 0 z "},"Ю":{"ha":679,"x_min":64,"x_max":606,"o":"m 114 0 q 84 8 94 -1 q 74 33 74 17 q 76 283 76 200 l 72 449 l 72 579 l 64 914 q 65 1028 64 1022 q 101 1047 75 1047 q 126 1042 117 1047 q 146 1011 146 1032 q 144 1000 146 1004 q 128 826 128 921 q 132 724 128 781 q 133 692 133 717 q 129 579 133 683 l 128 531 q 199 538 160 531 q 227 542 207 539 q 265 544 247 544 l 268 624 q 272 743 269 715 q 282 820 274 771 q 297 910 290 869 q 351 1022 307 961 q 417 1054 375 1054 q 446 1051 426 1054 q 516 1017 488 1043 q 554 951 544 992 q 577 855 568 900 q 590 744 586 810 l 596 689 q 601 632 599 668 q 606 558 606 594 q 599 436 606 503 q 553 142 583 257 q 475 1 529 50 q 411 -25 444 -25 q 368 -12 388 -25 q 338 22 349 0 q 292 196 304 88 q 267 426 279 282 q 263 489 265 432 q 233 492 253 492 q 208 490 219 492 q 189 488 197 489 q 128 483 150 482 q 129 440 129 468 l 129 400 q 135 263 132 356 q 147 36 140 111 q 114 0 151 0 m 417 26 q 468 90 446 44 q 519 274 506 169 q 529 361 525 332 q 536 424 531 375 q 542 515 542 472 q 532 685 542 588 l 529 719 q 453 1001 519 946 q 429 1013 443 1013 q 397 994 410 1013 q 365 933 372 958 q 351 850 358 907 l 347 814 q 334 699 340 758 q 328 586 328 639 q 329 535 328 557 q 332 497 331 513 l 335 467 l 336 426 q 341 347 338 414 q 356 219 344 281 q 363 178 361 192 q 385 74 374 111 q 417 26 396 36 z "},"Я":{"ha":467,"x_min":53,"x_max":385,"o":"m 357 -7 q 319 25 325 -7 q 313 125 313 78 q 306 348 308 232 q 304 517 304 464 q 256 478 274 503 q 224 417 239 454 q 199 282 199 349 l 199 247 q 197 196 199 239 q 189 101 196 153 q 119 -3 181 32 q 94 -8 110 -8 q 65 1 76 -8 q 57 26 53 10 q 65 40 60 36 q 81 49 71 44 q 97 57 92 53 q 118 110 118 76 l 119 226 q 126 331 122 294 q 147 417 131 368 q 174 474 153 435 q 204 525 194 514 q 102 615 131 561 q 74 774 74 669 q 103 935 74 856 q 199 1033 132 1013 l 260 1054 q 288 1060 272 1060 q 354 1035 317 1060 q 378 989 378 1021 q 369 813 369 872 l 369 761 l 369 647 l 369 504 q 372 282 369 357 q 376 181 374 225 q 381 107 379 136 l 385 31 l 385 22 q 379 -1 385 4 q 357 -7 374 -7 m 299 1001 q 267 990 292 999 q 225 971 243 982 q 187 930 204 961 q 160 864 169 899 q 151 811 150 829 l 154 750 q 156 682 154 707 q 178 617 157 643 q 239 582 200 592 q 274 570 254 578 q 304 558 294 563 l 299 1001 z "},"а":{"ha":415,"x_min":17,"x_max":381,"o":"m 358 -12 q 311 -3 326 -12 q 296 33 296 7 q 282 175 296 75 l 276 204 l 139 225 q 115 96 131 193 q 89 6 107 28 q 61 -7 79 -7 q 31 3 44 -7 q 17 29 17 14 l 19 36 l 21 42 q 160 746 113 399 q 161 765 160 751 q 164 803 163 778 q 173 885 168 854 q 189 931 178 915 l 236 931 q 269 922 256 931 q 283 896 283 913 q 313 582 283 790 q 340 282 340 368 q 347 239 340 274 q 354 197 354 207 q 368 114 354 188 q 381 28 381 47 l 381 26 q 358 -12 381 -4 m 267 254 q 263 306 263 275 q 240 625 263 431 l 226 769 q 144 276 167 443 q 267 254 165 263 z "},"б":{"ha":376,"x_min":82,"x_max":333,"o":"m 139 0 q 97 44 94 -3 l 99 140 q 100 235 100 171 l 100 338 q 99 440 100 406 q 97 572 97 485 l 97 703 l 97 738 q 95 800 97 775 q 85 853 93 825 q 82 869 82 864 q 99 911 82 893 q 143 931 117 929 q 216 935 181 932 q 285 944 251 938 q 313 938 297 950 q 331 913 328 926 q 325 891 333 901 q 303 876 317 881 q 176 857 274 868 l 164 514 q 263 478 228 507 q 310 376 297 449 q 325 254 325 319 q 317 168 325 213 q 224 35 297 78 q 199 19 215 29 q 169 5 183 10 q 139 0 154 0 m 167 75 q 217 108 194 83 q 246 163 239 133 q 258 268 258 217 q 246 374 258 322 q 220 426 238 407 q 167 446 203 444 l 167 75 z "},"в":{"ha":396,"x_min":82,"x_max":329,"o":"m 125 -14 q 88 13 94 -14 q 82 60 82 29 q 88 207 82 119 q 94 356 94 290 q 99 576 94 429 l 101 796 q 97 833 101 808 l 93 868 l 93 875 q 103 922 93 907 q 139 938 113 938 q 218 917 175 938 q 281 864 261 896 q 321 697 321 797 q 308 572 321 622 q 265 478 296 521 q 316 385 303 442 q 329 244 329 329 q 300 97 329 160 q 203 0 267 26 q 125 -14 164 -14 m 169 518 q 242 686 242 519 q 185 874 242 865 q 169 724 169 842 l 169 518 m 161 57 q 231 110 206 67 q 256 208 256 153 q 249 311 256 267 q 234 369 243 346 q 210 411 225 392 q 171 436 193 432 q 165 226 165 357 q 163 174 165 218 l 160 126 q 161 122 160 124 l 161 119 l 161 57 z "},"г":{"ha":328,"x_min":82,"x_max":321,"o":"m 97 -11 q 92 8 96 -6 q 90 32 89 22 q 99 272 93 193 q 100 358 100 301 q 90 607 100 461 q 82 876 82 785 q 99 914 82 897 q 139 931 115 931 q 276 918 218 931 q 313 899 304 913 q 318 856 321 886 q 278 843 299 843 q 257 846 271 843 q 190 851 244 849 l 188 851 q 168 831 168 851 q 161 601 161 629 q 167 383 164 457 q 168 360 167 374 q 168 336 169 346 q 164 201 164 272 q 168 40 164 86 q 158 -2 167 10 q 128 -14 150 -14 q 97 -11 122 -14 z "},"д":{"ha":644,"x_min":-3,"x_max":644,"o":"m 611 -171 q 594 -174 600 -174 q 571 -153 578 -174 q 565 -111 565 -136 l 567 -15 q 565 0 567 -7 q 563 14 564 7 l 403 14 q 337 1 417 14 q 213 -17 257 -12 l 150 -22 l 81 -29 q 81 -60 81 -42 q 81 -103 82 -78 l 81 -110 q 69 -143 81 -132 q 49 -154 58 -154 q 32 -149 43 -154 q 4 -99 7 -131 l 0 3 q 44 57 -3 57 q 86 71 71 58 q 122 110 101 83 q 155 172 143 138 q 178 254 167 206 q 196 357 190 307 q 210 500 201 407 q 222 793 222 646 l 221 871 q 236 915 221 897 q 278 932 251 932 q 290 931 286 932 q 394 917 354 919 l 401 917 q 422 924 419 917 q 453 940 435 940 q 475 935 465 940 q 504 893 497 926 l 497 656 q 499 367 497 463 q 501 214 499 317 l 503 138 q 504 117 503 126 q 507 97 506 107 q 549 94 535 94 q 565 96 560 94 q 620 81 596 100 q 644 33 644 63 q 639 -79 644 -4 q 636 -135 639 -99 q 611 -171 633 -164 m 211 50 q 334 63 289 57 q 424 83 379 69 q 438 443 438 251 q 424 833 438 621 q 289 840 388 835 l 288 775 q 272 456 276 561 q 218 144 267 297 q 206 103 215 136 q 179 47 197 71 l 211 50 z "},"е":{"ha":394,"x_min":92,"x_max":326,"o":"m 149 -18 q 116 -6 131 -18 q 100 25 101 7 l 100 61 l 100 89 q 99 118 99 101 q 94 207 99 147 l 92 296 q 96 499 92 364 q 101 701 101 619 q 97 760 101 721 q 93 818 93 800 q 151 917 93 917 q 258 899 197 917 q 318 856 318 881 q 306 830 318 842 q 278 811 294 818 q 172 839 219 832 q 174 779 174 818 q 172 679 174 724 q 168 579 168 613 l 172 557 l 194 558 q 222 560 206 560 q 289 521 289 560 q 276 495 289 506 q 244 485 264 485 q 206 488 219 485 l 171 488 q 174 382 174 451 q 172 257 174 313 q 168 131 168 172 q 171 53 168 53 l 217 54 q 274 56 240 56 q 326 22 326 56 q 309 -8 326 3 q 267 -18 292 -18 l 149 -18 z "},"ё":{"ha":394,"x_min":35,"x_max":361,"o":"m 149 -18 q 116 -6 131 -18 q 100 25 101 7 l 100 61 l 100 89 q 99 118 99 101 q 94 207 99 147 l 92 296 q 96 499 92 364 q 101 701 101 619 q 97 760 101 721 q 93 818 93 800 q 151 917 93 917 q 258 899 197 917 q 318 856 318 881 q 306 830 318 842 q 278 811 294 818 q 172 839 219 832 q 174 779 174 818 q 172 679 174 724 q 168 579 168 613 l 172 557 l 194 558 q 222 560 206 560 q 289 521 289 560 q 276 495 289 506 q 244 485 264 485 q 206 488 219 485 l 171 488 q 174 382 174 451 q 172 257 174 313 q 168 131 168 172 q 171 53 168 53 l 217 54 q 274 56 240 56 q 326 22 326 56 q 309 -8 326 3 q 267 -18 292 -18 l 149 -18 m 82 997 q 49 1013 64 997 q 35 1047 35 1028 q 51 1084 35 1068 q 88 1100 67 1100 q 122 1084 107 1100 q 136 1049 136 1068 q 121 1012 136 1026 q 82 997 106 997 m 306 990 q 273 1006 288 990 q 258 1040 258 1021 q 274 1077 258 1061 q 311 1093 290 1093 q 346 1077 331 1093 q 361 1042 361 1061 q 345 1005 361 1019 q 306 990 329 990 z "},"ж":{"ha":768,"x_min":35,"x_max":733,"o":"m 117 -21 q 42 35 60 -21 q 35 78 35 53 q 39 122 35 97 q 44 156 43 147 q 55 174 46 167 q 76 182 64 181 q 100 174 89 182 q 115 154 111 165 q 118 82 118 140 q 132 79 125 78 q 142 106 136 90 q 151 133 149 122 q 190 326 179 261 q 216 401 199 369 q 268 458 233 433 q 232 542 244 489 q 219 649 219 596 l 219 719 q 218 792 219 768 q 208 835 218 808 q 188 861 197 861 q 164 846 175 858 q 156 805 157 829 q 154 775 154 781 q 113 740 150 736 q 88 755 99 742 q 76 785 76 768 q 94 846 76 814 q 138 899 113 878 q 188 919 164 919 q 226 908 206 919 q 260 878 246 896 q 286 758 286 840 q 283 688 286 735 l 282 660 q 290 558 282 610 q 315 478 297 506 q 323 476 317 476 q 333 475 329 476 l 333 482 q 331 757 333 590 q 333 807 331 774 l 335 854 q 333 886 335 875 q 332 897 332 890 q 367 936 332 929 q 394 927 378 939 q 415 899 410 915 q 419 871 419 886 q 418 857 419 861 q 399 679 399 763 l 399 468 q 432 458 418 461 q 468 497 463 454 q 478 567 472 515 q 479 582 479 575 q 481 596 479 589 l 488 654 q 500 750 492 703 q 568 889 517 835 q 618 910 589 910 q 660 898 640 910 q 690 865 681 886 q 708 809 703 838 q 715 736 713 781 q 707 713 717 719 q 675 699 697 707 q 645 719 656 704 q 638 758 635 735 q 614 832 642 797 q 581 790 592 813 q 564 729 569 767 q 554 678 558 692 q 543 597 543 625 q 535 528 543 569 q 515 460 526 486 q 511 444 511 451 q 522 421 511 432 q 551 353 542 400 q 556 297 556 331 l 554 243 q 551 181 551 201 q 562 134 551 156 q 593 82 572 113 q 610 74 599 74 q 636 89 625 74 q 656 147 651 124 q 661 178 660 171 q 694 213 665 213 q 710 211 704 213 l 728 204 q 733 158 733 183 q 688 29 733 96 q 656 3 676 13 q 611 -7 636 -7 q 565 5 585 -7 q 535 36 546 17 q 507 103 517 72 q 497 167 497 133 q 494 258 497 208 q 490 328 492 308 l 488 365 q 472 397 488 388 q 433 410 456 406 q 399 418 411 415 q 396 349 396 371 q 393 272 396 322 q 392 161 390 197 q 397 121 393 143 q 403 90 401 99 q 410 61 408 71 q 413 43 413 50 q 401 12 413 24 q 368 -1 390 0 q 344 6 350 -3 q 338 36 339 15 l 339 101 q 336 229 339 143 q 333 314 333 285 l 333 426 q 309 419 318 428 q 292 397 300 411 q 261 329 271 365 q 242 236 251 293 l 236 204 q 189 32 219 104 q 160 -7 179 7 q 117 -21 140 -21 z "},"з":{"ha":397,"x_min":57,"x_max":340,"o":"m 169 -19 q 100 0 126 -19 q 61 61 74 19 q 57 88 57 74 q 67 122 57 108 q 93 133 76 135 q 117 124 106 133 q 131 100 128 114 q 143 51 135 90 q 165 50 150 50 q 246 101 222 50 q 265 169 258 132 q 269 238 271 207 q 240 403 271 314 q 200 442 228 440 q 151 478 150 444 q 160 512 150 501 q 194 526 171 522 q 221 538 208 529 q 239 558 233 546 q 261 620 257 596 q 264 717 265 644 q 251 775 263 742 q 225 826 240 808 q 183 853 208 853 q 155 842 164 853 q 138 815 146 832 q 125 786 131 797 q 100 768 113 768 q 88 771 96 768 q 68 784 74 774 q 63 814 63 794 q 99 894 63 860 q 183 928 135 928 q 301 840 265 928 q 330 771 319 813 q 339 697 340 729 q 311 543 336 604 q 264 488 289 506 q 319 383 301 447 q 338 243 338 318 q 297 50 338 119 q 169 -19 256 -19 z "},"и":{"ha":610,"x_min":82,"x_max":528,"o":"m 129 3 q 110 26 111 8 l 110 47 q 104 222 107 106 q 97 378 99 324 q 88 632 93 463 q 85 713 86 661 q 83 790 83 764 q 82 833 82 806 q 85 881 82 865 q 132 921 90 924 q 174 876 171 921 l 174 860 l 172 510 l 172 344 l 172 261 q 175 216 172 242 q 179 179 178 190 q 202 262 186 219 q 222 314 218 304 q 253 396 243 364 q 339 658 286 503 q 364 736 350 690 q 415 889 401 854 q 453 931 428 922 q 478 935 465 935 q 518 922 497 935 l 518 856 q 522 640 518 751 q 524 569 524 617 l 524 529 q 523 496 524 517 q 524 447 522 475 l 528 72 q 518 26 528 51 q 504 9 514 15 q 483 3 494 3 q 444 39 444 3 q 449 119 444 81 q 451 200 451 172 q 444 611 449 475 q 439 679 444 632 l 435 729 q 421 711 422 715 l 399 643 q 364 536 376 571 l 243 200 l 181 29 q 147 0 169 0 q 129 3 143 0 z "},"й":{"ha":610,"x_min":82,"x_max":528,"o":"m 129 3 q 110 26 111 8 l 110 47 q 104 222 107 106 q 97 378 99 324 q 88 632 93 463 q 85 713 86 661 q 83 790 83 764 q 82 833 82 806 q 85 881 82 865 q 132 921 90 924 q 174 876 171 921 l 174 860 l 172 510 l 172 344 l 172 261 q 175 216 172 242 q 179 179 178 190 q 202 262 186 219 q 222 314 218 304 q 253 396 243 364 q 339 658 286 503 q 364 736 350 690 q 415 889 401 854 q 453 931 428 922 q 478 935 465 935 q 518 922 497 935 l 518 856 q 522 640 518 751 q 524 569 524 617 l 524 529 q 523 496 524 517 q 524 447 522 475 l 528 72 q 518 26 528 51 q 504 9 514 15 q 483 3 494 3 q 444 39 444 3 q 449 119 444 81 q 451 200 451 172 q 444 611 449 475 q 439 679 444 632 l 435 729 q 421 711 422 715 l 399 643 q 364 536 376 571 l 243 200 l 181 29 q 147 0 169 0 q 129 3 143 0 m 269 1004 q 206 1031 236 1004 q 176 1089 176 1057 q 185 1111 176 1103 q 208 1121 193 1119 q 240 1119 226 1122 q 264 1101 253 1115 q 290 1086 276 1086 q 319 1107 306 1086 q 329 1124 325 1117 q 336 1138 333 1132 q 372 1164 351 1164 q 383 1161 375 1164 q 401 1145 394 1156 q 408 1122 408 1135 q 404 1106 408 1114 q 401 1098 403 1101 q 399 1092 400 1094 q 351 1024 383 1043 q 269 1004 318 1004 z "},"к":{"ha":482,"x_min":81,"x_max":447,"o":"m 142 -3 q 124 0 136 -1 q 103 7 111 1 q 86 54 82 21 l 88 85 q 93 197 93 160 q 89 636 93 415 q 82 878 89 750 q 92 915 81 900 q 122 931 104 931 q 156 915 139 931 q 172 879 174 900 q 163 713 163 838 l 163 601 q 165 504 163 571 q 192 556 169 510 q 201 573 194 561 q 211 597 208 585 q 286 811 257 736 q 319 880 299 851 q 376 919 340 908 q 410 917 389 924 q 439 900 432 910 q 447 876 447 890 q 438 851 447 863 q 415 838 429 840 q 361 813 381 832 q 333 772 342 793 q 311 707 324 750 l 256 571 q 244 538 251 561 q 229 501 236 514 q 221 493 226 497 q 211 485 215 489 q 237 481 221 492 q 269 450 253 469 q 285 401 281 428 q 292 371 290 375 q 297 338 294 349 q 321 256 314 293 q 331 169 328 219 q 358 82 335 119 q 374 79 365 81 q 394 76 383 78 q 424 49 417 75 q 425 39 425 46 q 411 10 425 24 q 358 -11 390 -11 q 313 1 335 -11 q 282 35 292 14 q 268 72 274 49 q 251 193 258 132 q 240 322 246 278 q 213 406 233 365 q 201 420 207 415 q 186 425 196 425 q 165 421 178 425 q 163 226 163 321 q 168 44 163 167 q 163 20 169 29 q 142 -3 157 11 z "},"л":{"ha":544,"x_min":42,"x_max":454,"o":"m 75 -31 q 56 -24 64 -31 q 43 -6 47 -17 q 42 3 42 -3 q 61 32 42 21 q 120 83 100 49 q 149 163 140 117 q 174 458 174 299 q 172 549 174 518 q 156 879 163 783 l 156 885 q 161 904 156 897 q 181 914 167 911 q 322 931 269 931 q 364 929 350 931 q 413 910 396 928 q 429 860 429 892 l 431 786 q 433 640 433 689 l 432 574 q 443 201 432 426 q 453 44 449 100 q 445 8 454 19 q 415 -6 436 -3 q 367 38 369 -8 q 371 118 371 78 q 369 185 371 158 l 368 343 q 364 579 368 458 q 356 768 361 679 q 344 876 350 857 q 310 869 336 875 q 238 860 283 864 q 233 768 233 796 q 238 713 233 736 q 243 603 240 675 l 243 572 q 239 268 243 347 q 236 233 236 246 q 225 144 231 175 q 140 -6 211 71 q 78 -31 121 -28 l 75 -31 z "},"м":{"ha":779,"x_min":82,"x_max":692,"o":"m 644 -72 q 601 14 601 -72 l 601 103 l 601 192 q 592 374 601 261 q 581 547 581 500 l 583 633 q 586 718 586 671 q 540 526 581 700 q 457 215 500 358 q 389 78 415 78 q 347 94 363 78 q 331 138 331 110 q 281 397 331 199 q 192 722 232 596 l 183 565 q 168 235 172 367 q 165 60 165 107 q 167 39 165 49 l 167 19 q 157 -16 167 -4 q 121 -28 147 -28 q 94 -17 107 -28 q 82 6 82 -7 q 103 431 82 147 q 124 856 124 714 q 115 882 115 868 q 131 908 115 899 q 169 917 147 917 q 236 786 188 917 q 333 490 285 656 q 396 251 382 325 q 414 321 407 289 l 422 354 q 511 706 467 549 q 563 856 538 801 q 608 914 588 914 q 644 903 628 914 q 660 876 660 893 q 668 576 660 776 q 678 288 678 390 l 676 214 l 674 140 q 678 90 674 124 l 682 42 q 684 22 683 29 q 685 14 685 15 q 692 -12 692 -4 q 678 -54 692 -36 q 644 -72 664 -72 z "},"н":{"ha":460,"x_min":82,"x_max":378,"o":"m 329 0 q 282 229 282 0 l 283 308 l 285 372 l 285 376 l 285 390 q 286 417 286 401 q 282 424 286 419 q 278 431 278 428 l 278 432 q 253 429 271 429 q 208 435 235 429 q 164 442 200 436 l 164 282 q 168 168 164 246 q 172 54 172 92 q 161 18 172 33 q 132 3 150 3 q 94 54 106 3 q 83 192 83 107 l 86 304 q 88 404 88 351 l 88 428 l 88 447 q 86 476 88 469 l 86 483 l 90 564 q 86 721 90 617 q 82 878 82 825 q 93 907 82 894 q 121 919 104 919 q 165 836 165 919 l 163 664 q 160 490 160 586 q 235 483 181 483 l 286 483 q 289 500 289 492 q 281 697 289 567 q 271 896 271 819 q 283 922 271 911 q 311 932 294 932 q 339 925 321 932 l 351 919 q 365 393 351 722 l 378 42 q 363 11 378 22 q 329 0 349 0 z "},"о":{"ha":500,"x_min":68,"x_max":433,"o":"m 247 -26 q 181 -3 211 -26 q 131 58 150 19 q 81 243 90 143 q 68 425 68 338 q 69 453 68 442 l 69 478 q 68 485 69 485 l 68 510 l 69 607 q 81 749 71 651 q 113 878 88 815 q 138 920 122 906 q 172 935 153 935 q 272 915 228 935 q 347 858 317 894 q 394 773 375 824 q 422 665 414 722 q 431 542 431 607 l 431 531 q 432 453 431 488 l 433 374 q 247 -26 433 -26 m 242 32 q 288 52 267 32 q 319 107 308 72 q 351 260 346 178 q 358 382 358 331 q 349 546 358 444 q 340 706 340 653 l 340 731 q 305 822 338 783 q 225 861 272 861 q 163 807 178 861 q 149 696 149 764 q 150 651 149 669 l 150 614 l 147 550 q 144 486 144 521 q 149 338 144 411 q 176 135 154 233 q 242 32 199 32 z "},"п":{"ha":474,"x_min":82,"x_max":392,"o":"m 354 1 q 324 10 336 -1 q 311 43 311 22 q 307 175 307 110 q 311 351 307 264 q 314 482 314 440 q 296 800 299 581 q 294 883 296 851 q 192 886 224 883 l 183 886 q 161 864 163 886 l 160 764 q 164 676 160 692 q 167 654 167 660 q 164 621 167 643 q 161 588 161 599 q 168 551 161 567 q 173 517 174 539 q 172 483 172 494 q 171 357 174 440 q 168 258 168 290 q 171 167 168 218 q 175 96 174 117 l 178 57 q 169 22 179 35 q 139 8 158 8 q 121 11 132 8 q 104 25 108 15 q 99 50 100 35 l 94 167 l 96 335 q 93 558 93 485 l 92 671 q 85 839 90 750 l 82 896 l 82 904 q 88 924 82 918 q 108 935 93 931 q 158 942 136 942 q 176 940 171 942 q 210 938 188 940 q 258 935 240 935 q 307 940 285 935 q 346 934 322 944 q 372 904 369 924 q 375 874 375 885 q 374 857 375 863 q 368 817 368 840 q 369 789 368 804 q 371 757 371 774 q 369 735 371 743 q 368 694 368 722 q 376 565 368 649 l 381 528 q 382 490 382 515 q 381 447 382 461 q 380 420 381 436 q 381 382 379 404 q 382 286 379 350 l 383 256 l 392 38 q 384 13 392 22 q 354 1 376 4 z "},"р":{"ha":390,"x_min":94,"x_max":339,"o":"m 115 -10 q 97 194 97 64 l 100 318 q 103 442 103 374 q 94 476 94 461 l 94 481 q 108 600 108 507 l 110 664 q 111 732 111 694 q 100 861 111 814 q 114 895 104 881 q 138 910 124 910 l 199 910 q 267 892 238 910 q 311 843 296 875 q 339 708 339 786 q 338 621 339 653 q 324 547 335 581 q 312 517 319 529 q 290 489 304 506 q 226 444 271 465 q 179 426 208 435 l 179 278 l 182 189 l 185 146 q 190 14 190 68 q 176 -15 190 -3 q 144 -26 163 -26 l 115 -10 m 181 483 q 263 718 263 496 q 258 781 263 758 q 247 808 254 797 q 226 825 240 818 q 193 833 211 833 q 178 835 193 835 l 178 756 q 179 610 178 674 q 181 515 179 538 l 181 486 l 181 483 z "},"с":{"ha":388,"x_min":61,"x_max":347,"o":"m 271 -19 q 206 -10 240 -19 q 154 10 172 -1 q 61 336 61 69 l 61 374 l 61 417 l 61 450 q 63 549 61 506 q 68 644 64 593 q 81 733 72 699 q 108 810 89 767 q 149 872 125 850 q 213 910 174 894 q 299 925 247 925 q 331 915 319 925 q 342 890 342 906 q 333 865 342 876 q 311 853 324 854 l 246 853 q 197 818 218 853 q 168 728 176 783 q 150 561 150 625 l 150 554 l 147 421 q 144 286 144 361 q 149 200 144 233 q 172 117 156 150 q 229 63 189 79 q 275 54 250 54 q 306 65 290 54 q 335 58 324 65 q 347 35 347 50 q 271 -19 347 -19 z "},"т":{"ha":356,"x_min":3,"x_max":301,"o":"m 163 22 l 161 76 q 160 129 160 100 l 161 176 q 140 481 157 192 q 121 851 124 769 q 18 868 40 854 q 3 893 3 879 q 17 913 3 904 q 47 922 32 922 q 142 917 86 922 q 236 910 194 910 l 247 910 l 258 910 q 301 876 301 910 q 288 849 301 860 q 256 839 274 839 q 219 843 243 839 l 192 849 l 190 842 l 189 835 q 213 440 189 711 q 235 46 235 186 q 220 17 235 29 q 188 4 206 4 l 163 22 z "},"у":{"ha":374,"x_min":33,"x_max":322,"o":"m 149 -14 q 126 -1 136 -14 q 121 24 115 11 q 140 65 125 36 q 197 257 183 136 q 187 278 199 265 q 172 299 175 292 l 153 326 q 105 401 124 367 q 69 492 86 435 q 60 542 63 515 q 57 576 57 569 l 54 608 q 50 651 53 632 q 46 682 47 669 q 33 814 33 763 q 35 843 33 833 q 35 881 36 864 q 35 908 35 897 q 54 936 36 936 q 69 933 58 936 q 121 875 121 918 q 118 833 121 864 l 114 776 q 115 718 114 738 q 140 490 126 603 q 160 434 144 460 q 194 392 176 408 q 214 376 211 376 q 224 410 222 401 q 233 592 232 533 q 235 753 235 640 l 235 915 q 241 931 236 926 q 258 936 246 936 q 304 916 286 936 q 318 868 322 896 q 314 779 314 835 q 315 733 314 746 q 317 699 317 721 q 311 600 317 664 q 308 551 311 585 q 294 424 306 510 l 289 378 q 256 172 281 294 q 231 91 247 133 q 193 13 214 49 q 175 -6 189 3 q 149 -14 161 -14 z "},"ф":{"ha":560,"x_min":56,"x_max":504,"o":"m 504 415 q 488 271 504 333 q 428 125 472 200 q 377 71 411 96 q 314 46 343 46 q 315 33 314 44 q 317 1 317 21 q 306 -60 317 -40 q 282 -69 296 -69 q 269 -67 278 -69 q 256 -58 260 -65 q 251 -39 253 -51 q 250 -12 250 -33 q 251 15 250 -3 q 250 42 251 33 l 224 50 q 196 57 203 56 q 142 94 158 63 q 121 124 138 100 q 93 172 104 149 q 79 215 82 194 q 56 513 56 368 q 65 706 56 617 q 249 907 89 889 q 247 951 247 924 q 254 999 247 986 q 279 1013 261 1013 q 306 1004 294 1013 q 321 982 317 996 q 323 940 324 972 q 322 904 322 908 q 344 905 325 908 q 372 896 363 901 l 399 879 q 443 847 432 860 q 468 793 454 833 q 494 681 488 746 q 501 522 500 617 q 503 457 501 476 l 504 415 m 414 300 q 428 453 428 400 q 426 528 428 485 q 424 593 425 571 l 421 640 q 397 794 415 733 q 319 864 378 854 q 318 806 318 843 l 318 479 q 314 219 314 349 q 317 104 314 185 q 385 190 367 135 q 414 300 410 263 m 249 100 q 257 474 257 288 q 249 849 257 661 q 156 763 174 825 q 131 592 132 669 l 129 504 q 143 288 129 378 q 176 153 154 207 q 249 100 197 99 z "},"х":{"ha":338,"x_min":33,"x_max":303,"o":"m 96 -4 q 67 4 79 -4 q 54 28 54 13 q 66 127 54 72 q 100 258 78 182 l 114 313 q 133 447 133 390 q 98 646 133 488 q 47 826 63 804 l 47 842 q 33 876 33 854 q 46 897 33 889 q 75 904 58 904 q 103 881 92 904 q 144 738 124 842 q 160 658 156 690 l 169 607 q 175 640 169 607 l 179 668 q 186 713 185 701 q 192 785 192 750 l 192 810 l 192 831 q 205 890 192 869 q 254 921 218 911 l 279 888 q 263 850 269 872 q 257 811 257 828 q 256 768 256 801 l 256 753 q 221 598 239 708 q 203 438 203 488 q 222 328 203 394 q 278 146 240 263 q 303 36 303 71 q 292 12 303 22 q 265 1 281 1 q 224 51 242 1 q 193 157 206 93 q 174 261 176 235 l 167 293 l 154 190 q 132 63 146 114 l 132 47 q 96 -4 132 -4 z "},"ч":{"ha":446,"x_min":56,"x_max":367,"o":"m 346 4 q 326 0 340 0 q 303 3 315 0 q 286 11 292 6 q 277 41 279 21 q 275 99 275 61 l 271 294 q 267 393 269 326 q 267 465 265 460 l 229 389 q 169 347 207 347 q 124 361 147 347 q 56 483 58 400 l 56 544 q 58 724 56 621 l 63 826 q 63 851 63 833 q 68 883 64 869 q 82 907 72 897 q 110 918 93 918 q 128 914 119 918 q 153 861 153 901 q 151 833 153 847 q 149 808 149 819 l 146 767 q 140 682 143 708 l 136 629 q 129 518 129 543 q 133 461 129 486 q 144 423 135 442 q 165 404 153 404 q 188 418 175 404 q 225 481 214 453 q 254 576 242 524 q 267 667 267 628 q 275 832 269 749 q 278 885 275 849 q 278 897 278 889 q 282 910 279 906 q 303 926 294 925 q 344 914 325 932 q 363 874 364 896 l 358 813 q 346 692 353 732 q 332 538 338 650 l 328 463 q 326 429 326 451 q 332 332 326 396 q 338 267 335 308 q 351 129 340 221 q 363 54 354 104 q 346 4 367 21 z "},"ц":{"ha":494,"x_min":82,"x_max":497,"o":"m 428 79 q 483 60 468 81 q 493 7 497 39 q 490 -57 490 -29 q 483 -142 488 -126 q 469 -168 479 -161 q 440 -174 460 -175 q 414 -162 422 -171 q 406 -137 406 -154 q 411 -56 406 -108 q 414 -15 411 -43 q 415 10 415 -8 l 381 11 q 272 6 342 11 q 186 1 210 1 q 128 15 144 1 q 110 65 113 29 q 99 314 104 147 q 96 381 99 336 q 92 469 92 425 q 94 531 92 489 q 97 597 97 575 q 92 724 97 640 l 88 778 q 82 868 82 839 l 82 881 q 89 917 82 904 q 113 933 94 933 q 128 929 122 933 q 163 875 163 908 q 168 764 163 839 q 171 726 169 749 q 172 671 172 703 l 172 599 l 172 456 q 178 175 172 301 q 188 75 179 154 l 311 83 q 308 114 308 103 q 303 169 306 131 l 303 272 l 303 479 q 300 624 303 526 l 296 768 q 299 906 296 860 q 335 949 299 949 q 356 946 342 949 q 372 907 372 929 q 369 835 372 882 q 368 765 368 811 l 369 678 q 365 589 369 635 q 364 542 364 574 q 369 425 364 503 q 375 325 375 358 q 386 79 375 243 l 428 79 z "},"ш":{"ha":653,"x_min":82,"x_max":571,"o":"m 225 -11 q 142 -1 188 -11 q 120 15 125 3 q 115 46 115 28 q 108 306 111 132 l 108 393 q 106 525 108 481 q 89 772 104 542 l 82 885 q 88 908 82 901 q 107 914 93 914 q 161 874 156 914 q 176 743 172 803 q 182 579 182 635 l 181 467 q 178 353 178 389 q 188 111 178 253 l 190 57 q 193 46 190 53 q 243 45 197 46 q 289 53 289 44 q 290 88 290 72 q 289 114 289 103 q 288 154 288 128 q 286 363 288 293 l 282 519 q 276 779 276 694 q 281 894 276 839 q 290 919 282 913 q 317 922 297 925 q 352 908 344 918 q 358 872 360 899 q 350 668 350 790 l 351 544 q 353 424 353 504 q 350 222 350 288 q 356 124 353 158 l 360 54 l 485 54 l 485 107 l 486 329 q 485 440 486 403 q 481 580 483 500 q 476 701 478 660 l 472 835 q 474 904 472 881 q 481 923 475 918 q 503 928 486 928 q 540 914 529 926 q 550 875 551 901 l 551 696 l 553 661 q 556 592 556 614 q 554 539 556 561 q 551 503 553 517 q 546 411 546 442 l 547 375 q 550 338 550 350 q 551 298 551 315 q 550 269 550 281 l 550 201 q 551 150 550 172 q 554 113 553 128 l 557 82 q 560 68 557 76 q 565 56 564 60 q 571 35 571 42 q 544 6 571 13 q 475 -1 517 -1 l 304 -4 q 265 -8 285 -4 q 225 -11 238 -11 z "},"щ":{"ha":706,"x_min":82,"x_max":706,"o":"m 646 -224 q 618 -212 628 -224 q 610 -179 608 -200 l 614 -112 q 621 21 621 -29 q 569 14 585 17 q 326 -8 436 -8 q 122 19 201 -8 q 103 40 111 24 q 96 76 96 56 l 94 306 l 96 372 q 97 438 97 393 q 96 481 97 467 l 92 556 q 83 818 83 717 l 82 865 q 117 932 82 932 q 167 871 167 932 l 168 576 l 167 315 q 169 263 167 296 q 174 215 172 231 q 181 121 181 157 q 179 97 181 104 l 179 90 q 197 71 179 72 q 297 61 226 67 q 286 193 286 114 l 288 292 l 289 372 q 286 536 289 428 q 282 724 282 624 q 288 907 282 785 q 314 940 290 940 l 331 938 q 364 922 354 931 q 374 894 374 913 q 371 871 374 888 q 361 696 361 803 l 361 651 l 363 461 l 364 161 q 371 92 364 131 l 375 63 q 448 68 425 63 q 482 75 471 74 l 486 208 q 493 521 493 385 q 489 760 493 621 q 488 807 489 792 l 486 857 q 488 893 486 881 q 499 926 489 914 q 524 938 508 938 q 549 931 535 938 q 572 890 575 921 q 567 504 567 708 q 568 125 567 251 q 574 88 568 115 l 607 92 q 671 99 646 99 q 699 90 696 99 q 706 56 706 79 q 701 -8 706 29 l 696 -81 q 693 -176 693 -112 q 679 -210 693 -196 q 646 -224 665 -225 z "},"ь":{"ha":406,"x_min":82,"x_max":360,"o":"m 114 6 q 82 35 86 7 l 86 382 l 86 489 l 86 694 q 88 899 86 831 q 97 914 88 907 q 119 921 106 921 q 142 914 131 921 q 158 896 153 907 q 171 831 171 874 q 161 735 171 800 q 156 671 157 706 q 154 625 154 636 q 148 563 151 606 q 147 521 144 519 q 199 511 168 524 q 226 503 222 503 q 319 429 288 492 q 358 303 353 368 q 360 258 360 288 q 347 139 360 189 q 231 6 333 42 q 188 0 214 0 q 145 2 168 0 q 114 6 122 4 m 160 61 q 188 57 175 57 q 235 73 215 57 q 260 115 254 89 q 275 211 267 147 q 281 260 278 242 q 282 285 282 268 q 260 392 282 343 q 196 447 238 442 q 153 454 167 453 l 160 61 z "},"ъ":{"ha":415,"x_min":0,"x_max":369,"o":"m 157 -8 q 121 33 121 -8 q 122 147 121 108 q 124 317 122 260 l 128 433 q 131 482 129 453 q 132 550 132 511 l 132 613 q 128 832 132 735 q 122 869 128 839 l 54 869 q 19 881 38 869 q 0 907 0 893 q 6 922 0 915 q 44 938 18 938 l 75 936 q 109 936 83 936 q 156 933 135 936 q 195 910 182 922 q 208 874 208 897 q 211 842 208 864 q 214 804 214 817 q 208 733 214 781 q 203 683 206 717 q 201 625 201 671 l 201 558 q 243 544 243 544 q 331 483 297 525 q 367 382 365 440 q 369 236 369 282 q 368 168 369 190 q 333 65 367 115 q 261 6 304 21 q 157 -8 218 -10 m 193 42 q 282 100 256 43 q 304 214 304 143 q 288 406 304 278 q 257 466 282 443 q 189 494 232 489 q 186 392 189 458 q 183 239 183 289 q 193 42 183 135 z "},"ы":{"ha":572,"x_min":81,"x_max":493,"o":"m 457 -14 q 417 17 417 -14 q 417 46 417 24 q 419 88 417 68 q 425 206 425 138 q 419 382 425 271 q 414 575 417 444 l 410 744 l 408 803 l 407 907 q 432 932 407 929 q 474 918 457 933 q 490 879 490 903 q 488 769 490 844 l 483 413 q 483 364 482 394 q 483 304 483 333 l 483 221 l 483 171 q 490 25 481 83 q 484 -4 493 6 q 457 -14 475 -14 m 131 -14 q 96 -8 111 -14 q 82 19 81 -3 q 86 99 85 51 q 88 164 88 146 q 92 331 88 243 q 94 436 94 364 q 93 532 94 476 q 90 615 92 588 q 88 671 89 639 q 86 742 86 703 q 83 815 83 789 l 82 851 q 82 880 82 858 q 90 914 82 901 q 117 926 97 926 q 147 912 135 926 q 160 878 160 897 q 163 826 160 863 q 165 725 165 763 q 158 635 165 679 q 156 607 156 626 q 158 560 156 590 q 206 542 169 556 q 268 512 242 529 q 310 472 294 494 q 357 340 357 396 q 344 149 357 254 q 304 56 338 86 q 207 3 271 25 q 167 -7 190 -3 q 131 -14 143 -11 m 158 61 q 183 58 175 58 q 229 78 211 58 q 278 190 278 125 q 281 306 281 254 q 267 424 281 397 q 228 475 257 454 q 161 504 199 496 q 151 283 151 406 q 158 61 151 179 z "},"э":{"ha":450,"x_min":35,"x_max":383,"o":"m 124 -19 q 54 13 78 -19 q 35 63 35 35 q 44 82 35 75 q 67 89 54 89 q 83 85 75 89 q 106 67 92 81 q 130 47 119 53 q 157 40 140 40 q 185 47 172 40 q 218 68 199 54 q 284 151 264 101 q 310 267 304 200 q 310 292 311 276 q 311 318 310 307 q 310 364 310 339 q 311 400 311 389 q 313 431 313 411 q 308 456 313 456 q 253 451 308 453 q 175 450 199 450 q 153 468 153 450 q 154 481 153 476 q 173 506 157 497 q 213 513 189 515 q 268 511 231 511 q 306 510 281 510 q 307 531 307 515 q 297 632 307 571 q 269 744 286 693 q 254 798 267 756 q 220 862 242 840 q 165 883 199 883 q 131 877 149 883 q 94 864 113 871 q 75 858 83 858 q 60 865 65 858 q 53 882 53 872 q 83 913 53 899 q 148 938 122 931 q 201 944 174 946 q 274 919 249 940 q 321 850 299 897 q 364 663 360 772 q 369 619 367 632 q 383 436 383 497 q 381 378 383 417 q 379 308 378 333 q 326 69 383 161 q 272 13 307 35 q 193 -15 236 -8 q 124 -19 172 -19 z "},"ю":{"ha":703,"x_min":82,"x_max":636,"o":"m 436 -10 q 372 11 403 -10 q 322 71 342 32 q 299 142 306 104 q 289 236 293 181 l 276 407 l 157 407 l 157 271 l 157 215 l 171 44 q 165 11 174 21 q 129 1 156 1 q 101 7 110 1 q 90 28 93 13 q 88 96 88 50 l 86 201 q 83 411 83 340 q 85 496 83 468 l 86 583 q 83 700 86 617 l 82 801 q 85 851 82 818 l 86 900 q 94 924 86 918 q 124 929 101 929 q 160 916 146 929 q 172 883 175 903 q 168 828 168 857 q 169 783 168 799 l 171 738 q 165 604 171 668 q 160 458 160 538 q 193 456 182 456 q 276 467 218 456 q 292 647 281 547 q 318 829 303 750 q 351 904 324 858 q 374 925 358 918 q 407 932 389 932 q 474 911 432 932 q 542 864 517 890 q 610 744 585 817 q 636 585 636 672 q 631 504 636 542 q 625 382 625 464 q 621 269 625 307 q 561 64 608 149 q 507 10 543 29 q 436 -10 471 -10 m 436 46 q 479 71 463 46 q 531 206 517 147 q 547 360 546 264 q 553 568 553 485 l 551 628 q 525 786 549 711 q 499 834 518 810 q 458 874 481 858 q 424 888 438 888 q 407 878 413 888 q 397 847 401 868 q 388 814 392 826 q 376 756 382 794 q 369 713 375 739 q 347 426 347 585 l 347 382 l 349 342 q 352 270 350 324 q 360 175 354 217 q 394 71 364 138 q 436 46 410 46 z "},"я":{"ha":457,"x_min":26,"x_max":375,"o":"m 56 -12 q 35 -5 43 -10 q 26 13 28 0 q 33 31 28 21 q 44 42 39 40 q 63 50 57 43 q 72 69 68 57 q 81 111 74 78 q 89 175 88 144 l 90 199 q 88 246 90 215 q 85 290 85 276 q 144 449 85 371 q 64 610 64 522 l 64 654 q 75 763 64 726 q 111 844 85 800 q 138 877 121 865 q 174 899 154 889 q 206 914 194 908 q 230 922 214 918 q 256 938 246 926 q 292 944 274 944 q 338 932 318 944 q 358 903 358 919 q 356 715 358 843 l 351 518 l 350 440 l 351 363 q 363 182 354 299 l 368 92 q 372 64 369 79 q 375 39 375 49 q 336 1 375 1 q 306 10 319 1 q 292 33 293 18 q 288 99 288 65 l 283 444 q 211 426 235 436 q 177 401 188 417 q 161 356 167 385 q 157 301 157 338 q 160 250 157 283 l 161 197 q 154 97 161 138 q 124 19 147 56 q 93 -7 113 1 q 56 -12 74 -15 m 193 486 q 211 485 199 485 q 286 497 240 485 q 283 608 286 533 q 279 749 279 679 q 283 867 279 807 q 217 847 246 861 q 178 817 188 833 q 140 683 142 749 q 143 575 140 610 q 157 518 144 544 q 193 486 169 492 z "},",":{"ha":276,"x_min":89,"x_max":215,"o":"m 106 -131 q 89 -118 92 -131 l 89 -110 l 122 -68 q 146 -22 140 -43 q 147 -10 147 -18 q 146 3 147 -1 q 112 16 124 3 q 96 57 100 29 q 110 95 92 82 q 158 108 129 108 q 210 63 201 108 q 190 -29 215 28 q 126 -122 165 -86 q 110 -131 118 -129 l 106 -131 z "},"…":{"ha":731,"x_min":111,"x_max":613,"o":"m 158 -22 q 126 -7 140 -22 q 111 28 111 8 q 127 65 111 49 q 164 82 143 82 q 198 66 183 82 q 213 29 213 50 q 197 -8 213 7 q 158 -22 182 -22 m 358 -22 q 326 -7 340 -22 q 311 28 311 8 q 327 65 311 49 q 364 82 343 82 q 398 66 383 82 q 413 29 413 50 q 397 -8 413 7 q 358 -22 382 -22 m 558 -22 q 526 -7 540 -22 q 511 28 511 8 q 527 65 511 49 q 564 82 543 82 q 598 66 583 82 q 613 29 613 50 q 597 -8 613 7 q 558 -22 582 -22 z "},"!":{"ha":288,"x_min":82,"x_max":206,"o":"m 153 207 q 126 242 139 207 q 114 349 114 278 q 117 443 114 374 q 119 557 119 494 l 117 785 l 114 1013 q 132 1051 114 1035 q 172 1067 150 1067 q 196 1057 186 1067 q 206 1032 206 1047 q 192 700 206 910 q 176 368 176 468 q 174 262 176 294 q 167 218 172 229 q 153 207 163 207 m 128 -31 q 97 -15 111 -31 q 82 22 82 0 q 99 66 82 47 q 139 85 115 85 q 180 66 164 85 q 196 18 196 47 q 128 -31 196 -31 z "},"#":{"ha":585,"x_min":63,"x_max":526,"o":"m 361 -56 q 314 -25 314 -56 q 335 189 314 63 q 357 394 354 322 q 261 397 315 397 l 228 394 q 222 325 224 371 q 201 88 211 165 q 181 -15 194 24 q 151 -54 168 -54 q 124 -46 136 -54 q 113 -25 113 -37 q 161 390 113 139 l 119 388 q 63 432 63 388 q 128 463 63 463 l 151 463 l 169 463 q 190 643 182 535 l 156 640 q 90 681 90 640 l 90 688 l 111 710 l 132 710 l 153 710 q 196 711 182 710 l 208 797 q 226 988 226 914 l 226 1000 l 226 1013 q 233 1050 226 1038 q 261 1063 240 1063 l 272 1063 l 288 1031 q 275 872 288 976 q 263 718 263 768 q 300 715 271 715 l 324 715 q 383 721 365 715 q 419 940 397 781 q 435 1042 425 983 q 469 1063 450 1063 q 492 1053 481 1063 q 503 1035 503 1044 q 479 878 503 983 q 453 724 456 779 l 497 724 l 526 692 q 521 670 524 678 q 510 657 518 663 q 490 650 500 650 l 444 653 q 428 474 431 581 l 435 474 l 442 474 q 500 432 500 474 q 447 397 500 397 l 443 397 l 424 399 q 408 264 421 369 q 385 -26 385 71 l 361 -56 m 250 464 q 356 468 321 464 q 378 646 375 588 q 313 651 347 651 q 254 647 276 651 q 232 465 236 576 q 250 464 236 464 z "},".":{"ha":401,"x_min":144,"x_max":246,"o":"m 190 -22 q 158 -7 172 -22 q 144 28 144 8 q 160 65 144 49 q 196 82 175 82 q 231 65 215 82 q 246 29 246 49 q 230 -8 246 7 q 190 -22 214 -22 z "},"?":{"ha":369,"x_min":82,"x_max":294,"o":"m 176 151 q 143 182 149 151 q 156 367 143 267 q 194 610 169 467 l 201 650 q 221 853 221 771 q 179 982 221 982 q 153 919 153 982 q 163 844 153 904 q 156 836 163 843 q 121 815 132 815 q 82 908 82 815 l 82 922 q 90 984 82 958 q 118 1029 97 1010 q 176 1049 142 1049 q 229 1038 207 1049 q 265 1007 251 1026 q 293 908 288 974 q 294 854 294 893 q 253 588 294 732 q 222 437 235 528 q 210 249 210 346 q 211 156 210 172 q 183 153 186 156 q 176 151 181 151 m 176 -6 q 143 11 156 -6 q 128 46 128 25 q 144 83 128 65 q 182 100 161 100 q 215 82 199 100 q 232 47 232 64 q 176 -6 232 -6 z "},"(":{"ha":404,"x_min":117,"x_max":350,"o":"m 311 -244 q 240 -169 274 -244 q 147 249 188 -44 q 124 458 132 364 q 117 597 117 551 q 127 718 117 636 q 156 889 138 800 q 203 1050 171 976 q 267 1119 233 1119 l 272 1119 l 297 1100 q 267 1003 297 1060 l 247 960 q 202 789 218 886 q 186 596 186 692 q 212 212 186 396 q 290 -87 238 28 q 311 -128 297 -104 q 350 -217 342 -185 l 349 -215 q 311 -244 336 -244 z "},")":{"ha":425,"x_min":54,"x_max":300,"o":"m 90 -206 q 65 -197 76 -206 q 54 -174 54 -187 q 93 -85 54 -153 q 113 -49 111 -53 q 197 239 163 61 q 231 553 231 417 q 215 774 231 663 q 169 960 199 886 q 149 1000 163 976 q 125 1052 132 1032 q 118 1092 118 1072 l 118 1100 l 144 1119 q 215 1046 183 1119 q 290 683 265 931 q 300 554 300 604 l 300 553 q 283 385 300 504 q 239 133 265 265 q 172 -103 213 1 q 90 -206 131 -206 z "},"—":{"ha":743,"x_min":63,"x_max":682,"o":"m 146 457 q 63 497 63 457 q 71 519 63 511 q 93 528 79 528 l 417 528 q 426 528 418 528 q 457 529 435 529 q 521 531 481 531 q 682 492 682 531 q 565 457 682 457 q 496 460 524 457 l 449 461 l 199 460 l 175 458 l 146 457 z "},"–":{"ha":646,"x_min":89,"x_max":560,"o":"m 336 435 l 144 438 q 89 468 89 438 q 98 492 89 483 q 121 500 107 500 l 236 500 l 289 501 l 369 503 q 560 463 560 503 q 551 440 560 449 q 526 432 542 432 l 336 435 z "},"-":{"ha":524,"x_min":111,"x_max":411,"o":"m 157 444 q 125 456 139 444 q 111 485 111 468 q 144 514 111 501 q 308 539 192 532 q 365 542 353 542 q 397 530 383 542 q 411 501 411 518 q 378 472 411 485 q 214 447 331 454 q 157 444 169 444 z "},"%":{"ha":800,"x_min":51,"x_max":725,"o":"m 183 475 q 107 511 135 475 q 68 597 76 551 q 53 700 56 654 q 51 789 51 742 q 74 944 51 854 q 110 1023 86 993 q 165 1053 135 1053 q 321 778 321 1053 l 321 774 l 319 774 q 308 626 308 742 q 297 549 307 582 q 263 496 288 515 q 183 475 233 475 m 268 -6 q 242 35 242 10 q 308 383 242 119 q 425 828 369 624 l 453 931 l 465 975 q 477 1021 467 1000 q 504 1042 488 1042 q 531 1032 519 1042 q 542 1008 542 1022 q 418 450 542 911 q 357 208 364 244 q 350 171 354 199 q 322 58 338 101 q 299 13 313 29 q 268 -6 285 -4 m 181 543 q 257 740 257 543 q 171 983 257 983 q 136 907 154 983 q 118 790 118 831 q 121 707 118 749 q 139 597 125 656 q 156 558 146 572 q 181 543 167 543 m 569 1 q 524 20 544 1 q 490 69 503 39 q 458 199 467 126 q 456 251 456 238 q 458 339 456 297 q 472 443 460 389 q 513 531 482 492 q 588 568 538 568 q 640 557 617 568 q 678 525 663 546 q 717 428 710 476 q 725 324 725 381 l 725 257 q 696 92 725 163 q 647 26 679 50 q 569 1 615 1 m 574 79 q 657 261 657 79 l 657 317 q 644 424 657 367 q 622 477 638 457 q 583 497 606 497 q 550 465 564 497 q 524 307 531 424 q 522 249 522 285 q 540 146 522 213 q 574 79 557 79 z "},"@":{"ha":793,"x_min":61,"x_max":719,"o":"m 343 -82 q 61 649 61 -82 q 63 743 61 700 q 69 840 64 786 q 87 938 75 899 q 122 1026 99 978 q 177 1100 144 1072 q 261 1147 210 1128 q 375 1165 310 1165 q 484 1144 433 1165 q 571 1083 535 1122 q 631 994 604 1047 q 675 883 658 942 q 715 638 706 774 q 719 521 719 582 q 715 436 719 472 q 694 347 711 388 q 643 286 679 304 q 600 275 624 275 q 529 351 565 275 q 465 247 506 288 q 381 207 425 207 q 300 239 335 207 q 253 318 272 263 q 232 424 238 364 q 226 531 226 485 l 226 578 q 228 674 226 633 q 240 774 232 725 q 274 858 250 815 q 301 889 286 878 q 338 908 315 900 q 383 917 358 917 q 489 858 444 917 q 522 794 507 833 q 546 715 538 756 q 571 540 563 639 l 579 456 q 585 383 581 435 l 585 376 l 606 346 q 627 390 618 353 q 639 465 636 426 q 640 526 640 488 q 628 732 640 633 q 574 938 611 853 q 524 1019 551 986 q 457 1072 496 1053 q 368 1093 417 1093 q 231 1047 283 1093 q 190 997 208 1028 q 164 933 172 965 q 151 864 156 906 q 144 788 146 822 l 143 713 l 143 631 q 146 483 143 551 q 163 292 150 386 q 206 113 179 181 q 288 -3 236 29 q 346 -21 311 -21 q 446 -9 399 -21 q 522 22 493 3 q 574 58 546 36 q 615 91 599 81 q 644 101 632 101 q 657 88 657 101 q 636 44 657 71 q 581 -11 615 17 q 478 -62 542 -42 q 343 -82 414 -82 m 392 278 q 431 301 410 278 q 468 357 453 325 q 483 410 483 389 l 483 515 q 465 708 483 596 q 433 807 454 769 q 383 844 411 844 q 321 760 346 844 q 299 560 299 676 q 322 361 299 447 q 392 278 347 278 z "}}}
